<svg width="64" height="64" viewBox="0 0 64 64" fill="none" xmlns="http://www.w3.org/2000/svg">
<path d="M45.7498 0H18.2498C15.665 0 13.5623 2.10275 13.5623 4.6875V59.3125C13.5623 61.8973 15.665 64 18.2498 64H45.7498C48.3345 64 50.4373 61.8973 50.4373 59.3125V4.6875C50.4373 2.10275 48.3345 0 45.7498 0ZM48.5623 50.875H21.9998C21.482 50.875 21.0623 51.2948 21.0623 51.8125C21.0623 52.3302 21.482 52.75 21.9998 52.75H48.5623V59.3125C48.5623 60.8634 47.3006 62.125 45.7498 62.125H18.2498C16.6989 62.125 15.4373 60.8634 15.4373 59.3125V52.75H18.2498C18.7675 52.75 19.1873 52.3302 19.1873 51.8125C19.1873 51.2948 18.7675 50.875 18.2498 50.875H15.4373V9.375H48.5623V50.875ZM48.5623 7.5H15.4373V4.6875C15.4373 3.13663 16.6989 1.875 18.2498 1.875H45.7498C47.3006 1.875 48.5623 3.13663 48.5623 4.6875V7.5Z" fill="#A47AB5"/>
<path d="M35.7498 3.75H31.9998C31.482 3.75 31.0623 4.16975 31.0623 4.6875C31.0623 5.20525 31.482 5.625 31.9998 5.625H35.7498C36.2675 5.625 36.6873 5.20525 36.6873 4.6875C36.6873 4.16975 36.2675 3.75 35.7498 3.75Z" fill="#A47AB5"/>
<path d="M31.9998 54.625C30.4489 54.625 29.1873 55.8866 29.1873 57.4375C29.1873 58.9884 30.4489 60.25 31.9998 60.25C33.5506 60.25 34.8123 58.9884 34.8123 57.4375C34.8123 55.8866 33.5506 54.625 31.9998 54.625ZM31.9998 58.375C31.4828 58.375 31.0623 57.9545 31.0623 57.4375C31.0623 56.9205 31.4828 56.5 31.9998 56.5C32.5168 56.5 32.9373 56.9205 32.9373 57.4375C32.9373 57.9545 32.5168 58.375 31.9998 58.375Z" fill="#A47AB5"/>
<path d="M28.2498 5.625C28.7675 5.625 29.1873 5.20527 29.1873 4.6875C29.1873 4.16973 28.7675 3.75 28.2498 3.75C27.732 3.75 27.3123 4.16973 27.3123 4.6875C27.3123 5.20527 27.732 5.625 28.2498 5.625Z" fill="#A47AB5"/>
</svg>
