<svg width="64" height="64" viewBox="0 0 64 64" fill="none" xmlns="http://www.w3.org/2000/svg">
<path d="M51.4998 36.2035H12.4998C9.84853 36.2065 7.30675 37.2611 5.43205 39.1358C3.55735 41.0105 2.5028 43.5523 2.49976 46.2035V46.8335C2.5028 49.4847 3.55735 52.0265 5.43205 53.9012C7.30675 55.7759 9.84853 56.8304 12.4998 56.8335H51.4998C54.151 56.8304 56.6928 55.7759 58.5675 53.9012C60.4422 52.0265 61.4967 49.4847 61.4998 46.8335V46.2035C61.4967 43.5523 60.4422 41.0105 58.5675 39.1358C56.6928 37.2611 54.151 36.2065 51.4998 36.2035ZM58.4998 46.8335C58.4976 48.6894 57.7595 50.4686 56.4472 51.7809C55.1349 53.0932 53.3556 53.8314 51.4998 53.8335H12.4998C10.6439 53.8314 8.86464 53.0932 7.55235 51.7809C6.24005 50.4686 5.50187 48.6894 5.49976 46.8335V46.2035C5.50187 44.3476 6.24005 42.5684 7.55235 41.2561C8.86464 39.9438 10.6439 39.2056 12.4998 39.2035H51.4998C53.3556 39.2056 55.1349 39.9438 56.4472 41.2561C57.7595 42.5684 58.4976 44.3476 58.4998 46.2035V46.8335Z" fill="#A47AB5"/>
<path d="M12.8148 49.111C14.2466 49.111 15.4073 47.9503 15.4073 46.5185C15.4073 45.0867 14.2466 43.926 12.8148 43.926C11.383 43.926 10.2223 45.0867 10.2223 46.5185C10.2223 47.9503 11.383 49.111 12.8148 49.111Z" fill="#A47AB5"/>
<path d="M20.5923 49.111C22.0241 49.111 23.1848 47.9503 23.1848 46.5185C23.1848 45.0867 22.0241 43.926 20.5923 43.926C19.1605 43.926 17.9998 45.0867 17.9998 46.5185C17.9998 47.9503 19.1605 49.111 20.5923 49.111Z" fill="#A47AB5"/>
<path d="M28.3702 49.111C29.802 49.111 30.9627 47.9503 30.9627 46.5185C30.9627 45.0867 29.802 43.926 28.3702 43.926C26.9384 43.926 25.7777 45.0867 25.7777 46.5185C25.7777 47.9503 26.9384 49.111 28.3702 49.111Z" fill="#A47AB5"/>
<path d="M52.2217 45.0186H39.7777C39.3799 45.0186 38.9984 45.1766 38.717 45.4579C38.4357 45.7392 38.2777 46.1207 38.2777 46.5186C38.2777 46.9164 38.4357 47.2979 38.717 47.5792C38.9984 47.8605 39.3799 48.0186 39.7777 48.0186H52.2217C52.6195 48.0186 53.0011 47.8605 53.2824 47.5792C53.5637 47.2979 53.7217 46.9164 53.7217 46.5186C53.7217 46.1207 53.5637 45.7392 53.2824 45.4579C53.0011 45.1766 52.6195 45.0186 52.2217 45.0186Z" fill="#A47AB5"/>
<path d="M15.0168 17.3715C16.6498 15.681 22.6998 10.1665 31.9998 10.1665C34.3498 10.1665 42.5218 10.6865 48.9828 17.3715C49.2596 17.6558 49.6379 17.8188 50.0347 17.8248C50.4315 17.8308 50.8145 17.6793 51.0999 17.4035C51.3852 17.1277 51.5496 16.75 51.5571 16.3532C51.5646 15.9564 51.4145 15.5729 51.1398 15.2865C43.8583 7.75 34.6498 7.1665 31.9998 7.1665C21.5198 7.1665 14.6998 13.382 12.8598 15.287C12.5906 15.5744 12.4452 15.9561 12.4551 16.3497C12.4649 16.7434 12.6291 17.1174 12.9122 17.391C13.1954 17.6646 13.5747 17.8159 13.9685 17.8123C14.3622 17.8086 14.7387 17.6503 15.0168 17.3715Z" fill="#A47AB5"/>
<path d="M44.8998 24.3969C45.1943 24.3969 45.4823 24.3103 45.7278 24.1477C45.9734 23.9851 46.1656 23.7538 46.2806 23.4827C46.3957 23.2116 46.4283 22.9126 46.3745 22.6231C46.3208 22.3335 46.1829 22.0662 45.9783 21.8545C42.2831 18.1116 37.259 15.9801 31.9998 15.924C26.7401 15.9802 21.7155 18.1117 18.0198 21.8545C17.882 21.9959 17.7735 22.1632 17.7005 22.3466C17.6276 22.5301 17.5915 22.7262 17.5945 22.9236C17.5975 23.1211 17.6394 23.316 17.7179 23.4972C17.7964 23.6783 17.9099 23.8423 18.0519 23.9795C18.1938 24.1167 18.3615 24.2246 18.5452 24.2969C18.729 24.3691 18.9252 24.4044 19.1226 24.4007C19.32 24.397 19.5148 24.3543 19.6957 24.2752C19.8766 24.196 20.0401 24.0819 20.1768 23.9395C23.3023 20.7741 27.5516 18.9715 31.9998 18.924C36.448 18.9711 40.6975 20.7738 43.8228 23.9395C43.9623 24.0842 44.1296 24.1993 44.3147 24.2779C44.4997 24.3565 44.6987 24.397 44.8998 24.3969Z" fill="#A47AB5"/>
<path d="M25.7608 27.3274C25.4842 27.6134 25.3325 27.9976 25.3391 28.3954C25.3457 28.7932 25.5101 29.1721 25.796 29.4487C26.082 29.7253 26.4661 29.877 26.864 29.8704C27.2618 29.8638 27.6407 29.6994 27.9173 29.4134C28.4467 28.8656 29.0809 28.4298 29.7823 28.1322C30.4836 27.8347 31.2377 27.6813 31.9995 27.6813C32.7614 27.6813 33.5155 27.8347 34.2168 28.1322C34.9181 28.4298 35.5524 28.8656 36.0818 29.4134C36.3583 29.6995 36.7371 29.8641 37.1349 29.8709C37.5327 29.8777 37.9169 29.7262 38.203 29.4497C38.4891 29.1732 38.6537 28.7944 38.6605 28.3966C38.6673 27.9988 38.5158 27.6145 38.2393 27.3284C37.4301 26.4913 36.4606 25.8255 35.3887 25.3708C34.3168 24.9161 33.1644 24.6818 32 24.6818C30.8357 24.6818 29.6832 24.9161 28.6113 25.3708C27.5394 25.8255 26.57 26.4913 25.7608 27.3284V27.3274Z" fill="#A47AB5"/>
</svg>
