<svg width="64" height="64" viewBox="0 0 64 64" fill="none" xmlns="http://www.w3.org/2000/svg">
<path d="M13.7185 55.7272C13.7185 56.4544 14.3101 57.0461 15.0374 57.0461H31.8219C32.549 57.0461 33.1406 56.4544 33.1406 55.7272V52.8679C33.1406 52.1408 32.5491 51.5492 31.8219 51.5492H15.0374C14.3103 51.5492 13.7185 52.1408 13.7185 52.8679V55.7272ZM15.5935 53.4242H31.2656V55.1711H15.5935V53.4242Z" fill="#A47AB5"/>
<path d="M13.7185 37.7518C13.7185 38.2695 14.1381 38.6893 14.656 38.6893H50.0448C50.5626 38.6893 50.9823 38.2695 50.9823 37.7518V22.6926C50.9823 22.1749 50.5626 21.7551 50.0448 21.7551H14.656C14.1381 21.7551 13.7185 22.1749 13.7185 22.6926V37.7518ZM38.4331 23.6301H49.1074V26.7749H38.4331V23.6301ZM38.4331 28.6499H49.1074V31.7945H38.4331V28.6499ZM38.4331 33.6695H49.1074V36.8143H38.4331V33.6695ZM20.7386 23.6301H36.5581V26.7749H20.7386V23.6301ZM20.7386 28.6499H36.5581V31.7945H20.7386V28.6499ZM20.7386 33.6695H36.5581V36.8143H20.7386V33.6695ZM15.5935 23.6301H18.8636V26.7749H15.5935V23.6301ZM15.5935 28.6499H18.8636V31.7945H15.5935V28.6499ZM15.5935 33.6695H18.8636V36.8143H15.5935V33.6695Z" fill="#A47AB5"/>
<path d="M42.1243 8.37024C42.6422 8.37024 43.0618 7.95049 43.0618 7.43274C43.0618 6.91499 42.6422 6.49524 42.1243 6.49524H31.1021C30.375 6.49524 29.7832 7.08686 29.7832 7.81399V10.6921C29.7832 11.4192 30.3748 12.0109 31.1021 12.0109H49.6633C50.3905 12.0109 50.9822 11.4192 50.9822 10.6921V7.81411C50.9822 7.08699 50.3906 6.49536 49.6633 6.49536H46.4993C45.9815 6.49536 45.5618 6.91511 45.5618 7.43286C45.5618 7.95061 45.9815 8.37036 46.4993 8.37036H49.1072V10.1361H31.6582V8.37024H42.1243Z" fill="#A47AB5"/>
<path d="M14.656 44.6449H22.813C23.3309 44.6449 23.7505 44.2251 23.7505 43.7074C23.7505 43.1896 23.3309 42.7699 22.813 42.7699H14.656C14.1381 42.7699 13.7185 43.1896 13.7185 43.7074C13.7185 44.2251 14.1381 44.6449 14.656 44.6449Z" fill="#A47AB5"/>
<path d="M14.656 48.9115H22.813C23.3309 48.9115 23.7505 48.4917 23.7505 47.974C23.7505 47.4562 23.3309 47.0365 22.813 47.0365H14.656C14.1381 47.0365 13.7185 47.4562 13.7185 47.974C13.7185 48.4917 14.1381 48.9115 14.656 48.9115Z" fill="#A47AB5"/>
<path d="M55.7511 43.1081V1.5625C55.7511 0.700875 55.0502 0 54.1886 0H10.5125C9.65083 0 8.94995 0.700875 8.94995 1.5625V61.0638C8.94995 61.9254 9.65083 62.6263 10.5125 62.6263H16.8745C17.3923 62.6263 17.812 62.2065 17.812 61.6888C17.812 61.171 17.3923 60.7513 16.8745 60.7513H10.825V1.875H53.8761V42.1565C52.5929 41.6501 51.1958 41.3717 49.735 41.3717C47.7631 41.3717 45.9077 41.8792 44.2918 42.7699H26.2036C25.6857 42.7699 25.2661 43.1896 25.2661 43.7074C25.2661 44.2251 25.6857 44.6449 26.2036 44.6449H41.7838C41.0666 45.3541 40.4433 46.1581 39.935 47.0366H26.2036C25.6857 47.0366 25.2661 47.4564 25.2661 47.9741C25.2661 48.4919 25.6857 48.9116 26.2036 48.9116H39.069C38.6497 50.0926 38.4207 51.363 38.4207 52.6859C38.4207 55.8406 39.7191 58.6973 41.8088 60.7513H21.2495C20.7316 60.7513 20.312 61.171 20.312 61.6888C20.312 62.2065 20.7316 62.6263 21.2495 62.6263H44.3353C45.941 63.5019 47.7808 64 49.735 64C55.9736 64 61.0491 58.9245 61.0491 52.6859C61.049 48.6565 58.9314 45.113 55.7511 43.1081ZM49.735 62.125C44.5301 62.125 40.2957 57.8906 40.2957 52.6859C40.2957 47.4811 44.5301 43.2467 49.735 43.2467C54.9397 43.2467 59.1741 47.4811 59.1741 52.6859C59.1741 57.8906 54.9396 62.125 49.735 62.125Z" fill="#A47AB5"/>
<path d="M56.5546 53.9865C56.0637 53.8212 55.5322 54.0852 55.367 54.5759C54.5512 56.9998 52.2877 58.6283 49.7349 58.6283C46.4582 58.6283 43.7925 55.9625 43.7925 52.6858C43.7925 49.4092 46.4582 46.7434 49.7349 46.7434C52.2891 46.7434 54.5529 48.373 55.368 50.7985C55.533 51.2893 56.0639 51.5533 56.5554 51.3885C57.0461 51.2235 57.3102 50.692 57.1454 50.2012C56.0734 47.0114 53.0954 44.8683 49.7349 44.8683C45.4244 44.8683 41.9175 48.3752 41.9175 52.6857C41.9175 56.9963 45.4244 60.5032 49.7349 60.5032C53.0936 60.5032 56.071 58.3615 57.144 55.1739C57.3094 54.6834 57.0454 54.1517 56.5546 53.9865Z" fill="#A47AB5"/>
<path d="M52.4245 50.3707L49.2636 53.5317L47.045 51.313C46.6788 50.9469 46.0853 50.9469 45.7192 51.313C45.353 51.6792 45.353 52.2728 45.7192 52.6388L48.6007 55.5203C48.7838 55.7034 49.0237 55.7949 49.2637 55.7949C49.5036 55.7949 49.7435 55.7034 49.9267 55.5203L53.7507 51.6964C54.1168 51.3303 54.1168 50.7367 53.7507 50.3707C53.3844 50.0045 52.7909 50.0045 52.4245 50.3707Z" fill="#A47AB5"/>
<path d="M18.3879 5.65613C17.87 5.65613 17.4504 6.07588 17.4504 6.59363V7.13625H16.5983C15.829 7.13625 15.1059 7.43575 14.5619 7.97975C14.0179 8.52375 13.7184 9.24688 13.7185 10.0161V10.0754C13.7186 11.6631 15.0105 12.9549 16.5983 12.9549H20.1811C20.7333 12.9549 21.1824 13.404 21.1824 13.9561C21.1824 14.5083 20.7333 14.9574 20.1811 14.9574H15.8368C15.3189 14.9574 14.8993 15.3771 14.8993 15.8949C14.8993 16.4126 15.3189 16.8324 15.8368 16.8324H17.4504V17.375C17.4504 17.8928 17.87 18.3125 18.3879 18.3125C18.9058 18.3125 19.3254 17.8928 19.3254 17.375V16.8324H20.1811C21.7671 16.8324 23.0574 15.5421 23.0574 13.9561C23.0574 12.3701 21.7671 11.0799 20.1811 11.0799H16.5983C16.0443 11.0799 15.5936 10.6293 15.5935 10.0753V10.016C15.5935 9.74775 15.698 9.49538 15.8878 9.30563C16.0776 9.11575 16.3299 9.01138 16.5984 9.01138H20.906C21.4239 9.01138 21.8435 8.59163 21.8435 8.07388C21.8435 7.55613 21.4239 7.13638 20.906 7.13638H19.3255V6.59375C19.3254 6.07575 18.9058 5.65613 18.3879 5.65613Z" fill="#A47AB5"/>
<path d="M41.0095 13.5569C40.4916 13.5569 40.072 13.9766 40.072 14.4944C40.072 15.0121 40.4916 15.4319 41.0095 15.4319H50.0449C50.5628 15.4319 50.9824 15.0121 50.9824 14.4944C50.9824 13.9766 50.5628 13.5569 50.0449 13.5569H41.0095Z" fill="#A47AB5"/>
</svg>
