<svg width="61" height="34" viewBox="0 0 61 34" fill="none" xmlns="http://www.w3.org/2000/svg">
<path d="M60.7601 3.50506C60.1639 1.58428 58.3453 0.301808 56.3348 0.382375L55.906 0.399953C54.648 0.451222 53.4648 0.969777 52.5786 1.85601L45.9491 8.41595C45.792 8.17608 45.6118 7.94793 45.4067 7.73516C44.5351 6.82952 43.3142 6.3106 42.0573 6.3106H32.7061C30.9417 6.3106 29.2213 6.08172 27.5916 5.63091C23.3472 4.45611 19.2973 5.30425 15.8795 8.08343C14.4377 9.2564 13.4013 10.5363 12.7656 11.4408C12.0456 10.9402 11.189 10.6777 10.3006 10.6927C9.17379 10.7121 8.12276 11.1691 7.34163 11.981L1.29732 18.2553C0.850911 18.7186 0.860066 19.455 1.31856 19.9073L6.17928 24.7017C6.64107 25.1569 7.38558 25.1522 7.84151 24.69C8.29671 24.2278 8.29195 23.4841 7.82979 23.0281L3.79598 19.0496L9.03426 13.6114C9.37887 13.2536 9.84285 13.0514 10.3398 13.0434C10.8415 13.0342 11.307 13.221 11.664 13.5671L21.0101 22.6366C21.3664 22.9827 21.5667 23.4463 21.5737 23.9429C21.5806 24.4399 21.3935 24.909 21.0467 25.2649L15.8993 30.5464L14.5747 29.2848C14.1045 28.837 13.3607 28.8553 12.9128 29.3255C12.4657 29.7957 12.484 30.5395 12.9542 30.9866L15.1196 33.0495C15.3474 33.2659 15.6389 33.3736 15.93 33.3736C16.2362 33.3736 16.5416 33.2546 16.7719 33.0187L22.7302 26.9052C23.5157 26.0995 23.9394 25.0357 23.924 23.9107C23.9167 23.3962 23.8171 22.897 23.6347 22.4319L25.7335 22.1877C26.7072 22.0745 27.6978 22.0167 28.6782 22.0167H42.9066C43.1245 22.0167 43.3449 22.0075 43.5621 21.9892L44.9255 21.8757C46.3076 21.761 47.6395 21.2813 48.778 20.4896C49.3369 20.1006 49.8437 19.6407 50.2846 19.1218L59.8724 7.84173C60.8971 6.63653 61.2285 5.01568 60.7601 3.50506ZM58.0816 6.31939L48.4935 17.5994C48.184 17.9634 47.8281 18.2864 47.4355 18.5596C46.6361 19.1159 45.7004 19.4524 44.7307 19.5334L43.3665 19.6469C43.2146 19.6597 43.0593 19.6663 42.9066 19.6663H28.6782C27.6074 19.6663 26.5252 19.7289 25.4621 19.8523L22.0637 20.2479L14.5454 12.9983C15.0573 12.2396 15.9981 11.0164 17.3626 9.90716C20.2052 7.596 23.4355 6.91924 26.9647 7.89593C28.7983 8.40349 30.7301 8.66057 32.7061 8.66057H42.0573C42.6788 8.66057 43.2827 8.91765 43.7141 9.36516C44.0294 9.69256 44.2293 10.0939 44.3117 10.5147C44.3103 10.6209 44.3234 10.7267 44.3509 10.8296C44.382 11.3808 44.2169 11.9426 43.8499 12.3992L43.8137 12.4446C43.3753 12.991 42.7216 13.3049 42.0207 13.3049H33.8798C33.2305 13.3049 32.7047 13.8307 32.7047 14.4797C32.7047 15.129 33.2305 15.6552 33.8798 15.6552H42.0207C43.4383 15.6552 44.76 15.0209 45.6473 13.9146L45.6836 13.8696C46.3632 13.0229 46.7002 11.9982 46.7035 10.9758L54.2357 3.52227C54.7081 3.05022 55.335 2.7752 56.0019 2.7481L56.4311 2.73089C57.3789 2.6906 58.2347 3.29668 58.5152 4.20159C58.7441 4.93914 58.5819 5.73089 58.0816 6.31939Z" fill="#A47AB5"/>
</svg>
