<svg width="31" height="31" viewBox="0 0 31 31" fill="none" xmlns="http://www.w3.org/2000/svg">
<path d="M12.7754 2.90625L12.624 3.69336L12.0488 6.56934C11.1255 6.93262 10.293 7.44348 9.53613 8.05273L6.7207 7.08398L5.96387 6.8418L5.57031 7.53809L3.63281 10.8682L3.23926 11.5645L3.81445 12.0791L5.99414 13.9863C5.91467 14.4821 5.8125 14.9778 5.8125 15.5C5.8125 16.0222 5.91467 16.5179 5.99414 17.0137L3.81445 18.9209L3.23926 19.4355L3.63281 20.1318L5.57031 23.4619L5.96387 24.1582L6.7207 23.916L9.53613 22.9473C10.293 23.5565 11.1255 24.0674 12.0488 24.4307L12.624 27.3066L12.7754 28.0938H18.2246L18.376 27.3066L18.9512 24.4307C19.8745 24.0674 20.707 23.5565 21.4639 22.9473L24.2793 23.916L25.0361 24.1582L25.4297 23.4619L27.3672 20.1318L27.7607 19.4355L27.1855 18.9209L25.0059 17.0137C25.0853 16.5179 25.1875 16.0222 25.1875 15.5C25.1875 14.9778 25.0853 14.4821 25.0059 13.9863L27.1855 12.0791L27.7607 11.5645L27.3672 10.8682L25.4297 7.53809L25.0361 6.8418L24.2793 7.08398L21.4639 8.05273C20.707 7.44348 19.8745 6.93262 18.9512 6.56934L18.376 3.69336L18.2246 2.90625H12.7754ZM14.3496 4.84375H16.6504L17.1348 7.35645L17.2559 7.93164L17.8008 8.11328C18.902 8.45764 19.901 9.04041 20.7373 9.80859L21.1611 10.2021L21.7061 10.0205L24.1582 9.17285L25.3086 11.1406L23.3711 12.8662L22.917 13.2295L23.0684 13.8047C23.1932 14.3572 23.25 14.921 23.25 15.5C23.25 16.079 23.1932 16.6428 23.0684 17.1953L22.9473 17.7705L23.3711 18.1338L25.3086 19.8594L24.1582 21.8271L21.7061 20.9795L21.1611 20.7979L20.7373 21.1914C19.901 21.9596 18.902 22.5424 17.8008 22.8867L17.2559 23.0684L17.1348 23.6436L16.6504 26.1562H14.3496L13.8652 23.6436L13.7441 23.0684L13.1992 22.8867C12.098 22.5424 11.099 21.9596 10.2627 21.1914L9.83887 20.7979L9.29395 20.9795L6.8418 21.8271L5.69141 19.8594L7.62891 18.1338L8.08301 17.7705L7.93164 17.1953C7.80676 16.6428 7.75 16.079 7.75 15.5C7.75 14.921 7.80676 14.3572 7.93164 13.8047L8.08301 13.2295L7.62891 12.8662L5.69141 11.1406L6.8418 9.17285L9.29395 10.0205L9.83887 10.2021L10.2627 9.80859C11.099 9.04041 12.098 8.45764 13.1992 8.11328L13.7441 7.93164L13.8652 7.35645L14.3496 4.84375ZM15.5 10.6562C12.8359 10.6562 10.6562 12.8359 10.6562 15.5C10.6562 18.1641 12.8359 20.3438 15.5 20.3438C18.1641 20.3438 20.3438 18.1641 20.3438 15.5C20.3438 12.8359 18.1641 10.6562 15.5 10.6562ZM15.5 12.5938C17.1158 12.5938 18.4062 13.8842 18.4062 15.5C18.4062 17.1158 17.1158 18.4062 15.5 18.4062C13.8842 18.4062 12.5938 17.1158 12.5938 15.5C12.5938 13.8842 13.8842 12.5938 15.5 12.5938Z" fill="#5A2583"/>
<rect x="11.75" y="11.75" width="7.5" height="7.5" rx="3.75" stroke="#A47AB5" stroke-width="1.5"/>
</svg>
