<svg width="20" height="23" viewBox="0 0 20 23" fill="none" xmlns="http://www.w3.org/2000/svg">
<g clip-path="url(#clip0_558_1944)">
<path d="M13.5086 9.28719C12.5773 10.2244 11.3151 10.75 10 10.75C8.6849 10.75 7.42272 10.2244 6.49137 9.28719C5.55986 8.34986 5.03571 7.07759 5.03571 5.75C5.03571 4.42241 5.55986 3.15014 6.49137 2.21281C7.42272 1.27564 8.6849 0.75 10 0.75C11.3151 0.75 12.5773 1.27564 13.5086 2.21281C14.4401 3.15014 14.9643 4.42241 14.9643 5.75C14.9643 7.07759 14.4401 8.34986 13.5086 9.28719ZM0.75 21.6658C0.75 17.6508 3.98111 14.4062 7.95982 14.4062H12.0402C16.0189 14.4062 19.25 17.6508 19.25 21.6658C19.25 21.9927 18.9876 22.25 18.6741 22.25H1.32589C1.01236 22.25 0.75 21.9927 0.75 21.6658Z" stroke="#5A2583" stroke-width="1.5"/>
<rect x="4.75" y="0.75" width="10.5" height="10.5" rx="5.25" fill="white" stroke="#A47AB5" stroke-width="1.5"/>
</g>
<defs>
<clipPath id="clip0_558_1944">
<path d="M0 8C0 3.58172 3.58172 0 8 0H12C16.4183 0 20 3.58172 20 8V23H0V8Z" fill="white"/>
</clipPath>
</defs>
</svg>
