<svg width="28" height="28" viewBox="0 0 28 28" fill="none" xmlns="http://www.w3.org/2000/svg">
<circle cx="14" cy="14" r="13.25" stroke="#5A2583" stroke-width="1.5"/>
<path d="M9.22765 20.6642C7.73684 19.6541 6.60612 18.2078 5.99876 16.534C5.39139 14.8602 5.33879 13.0456 5.84856 11.3521C6.35833 9.65857 7.40409 8.17381 8.83486 7.11216C10.2656 6.05052 12.0074 5.46692 13.8086 5.44563C15.6099 5.42433 17.3775 5.96644 18.8562 6.99369C20.3349 8.02094 21.4482 9.48018 22.0353 11.1607C22.6225 12.8413 22.6532 14.6562 22.123 16.3434C21.5927 18.0306 20.529 19.5029 19.0853 20.5476" stroke="#5A2583" stroke-width="1.5" stroke-linecap="round"/>
<line x1="12.9237" y1="21.1631" x2="15.989" y2="21.1631" stroke="#5A2583" stroke-width="1.5" stroke-linecap="round"/>
<line x1="14.1413" y1="9.27173" x2="14.1413" y2="16.9022" stroke="#A47AB5" stroke-width="1.5" stroke-linecap="round"/>
<circle cx="13.9999" cy="14.913" r="1.07609" fill="#A47AB5" stroke="#A47AB5" stroke-width="1.5"/>
</svg>
