<svg width="25" height="28" viewBox="0 0 25 28" fill="none" xmlns="http://www.w3.org/2000/svg">
<g clip-path="url(#clip0_558_1896)">
<path d="M6.33816 8.12605L1.96658 8.49753L0.476555 27.5357L24.5234 25.4864L22.9731 6.70825L17.445 7.17879L9.78523 7.83197" stroke="#5A2583" stroke-width="1.5" stroke-linecap="round" stroke-linejoin="round"/>
<path d="M14.0234 3.94066V9.34563L16.6127 9.12584V2.40522L14.5317 0.557129L8.69234 1.05553L6.64951 3.43297C6.64951 3.43297 6.57644 9.98024 6.57644 10.1938L8.76541 10.0081V4.60312" stroke="#A47AB5" stroke-width="1.5" stroke-linecap="round" stroke-linejoin="round"/>
<path d="M6.65269 3.50438L16.6158 2.65308" stroke="#A47AB5" stroke-width="1.5" stroke-linecap="round" stroke-linejoin="round"/>
<path d="M21.0923 6.70206V2.28768L19.0399 0.464355L16.4792 0.68105" stroke="#A47AB5" stroke-width="1.5" stroke-linecap="round" stroke-linejoin="round"/>
<path d="M17.9025 2.61885C18.0233 2.64671 21.0923 2.34644 21.0923 2.34644" stroke="#A47AB5" stroke-width="1.5" stroke-linecap="round" stroke-linejoin="round"/>
<path d="M18.7953 3.73022V6.81967" stroke="#A47AB5" stroke-width="1.5" stroke-linecap="round" stroke-linejoin="round"/>
<path d="M19.1543 26.0746L21.0923 6.70215" stroke="#5A2583" stroke-width="1.5" stroke-linecap="round" stroke-linejoin="round"/>
<path d="M22.0041 13.7136V23.5144L20.9938 24.3409" stroke="#5A2583" stroke-width="1.5" stroke-linecap="round" stroke-linejoin="round"/>
<path d="M23.2177 24.3471L22.0041 23.5144" stroke="#5A2583" stroke-width="1.5" stroke-linecap="round" stroke-linejoin="round"/>
</g>
<defs>
<clipPath id="clip0_558_1896">
<rect width="25" height="28" fill="white"/>
</clipPath>
</defs>
</svg>
