<svg width="32" height="32" viewBox="0 0 32 32" fill="none" xmlns="http://www.w3.org/2000/svg">
<g clip-path="url(#clip0_560_3416)">
<path d="M8.3294 23.3454L8.63886 29.731C8.69254 30.8432 9.57354 31.6611 10.5966 31.5447L22.9907 29.8645C24.0138 29.7481 24.8064 28.742 24.7527 27.6264L24.2727 18.1335" stroke="#5A2583" stroke-width="1.5" stroke-linecap="round" stroke-linejoin="round"/>
<path d="M23.6159 4.2776L23.5243 2.26883C23.4707 1.15665 22.5897 0.338768 21.5666 0.455119L9.17251 2.13537C8.14941 2.25172 7.35682 3.25781 7.4105 4.37342L8.1652 20.1424" stroke="#5A2583" stroke-width="1.5" stroke-linecap="round" stroke-linejoin="round"/>
<path d="M22.9117 25.5527L10.3345 27.2946" stroke="#5A2583" stroke-width="1.5" stroke-linecap="round" stroke-linejoin="round"/>
<path d="M16.6247 29.0331C17.1931 29.0331 17.1931 28.0784 16.6247 28.0784C16.0563 28.0784 16.0563 29.0331 16.6247 29.0331Z" fill="#5A2583"/>
<path d="M13.0944 9.49966C13.6028 9.38331 13.8333 9.73578 13.9849 10.2696C14.1743 10.9438 14.3985 11.6077 14.6322 12.2647C14.809 12.7678 14.5659 13.1031 14.3038 13.4351C13.5965 14.3317 13.5996 14.3248 14.2028 15.3377C14.9764 16.645 16.0027 17.6203 17.2626 18.3081C17.5878 18.4861 17.8404 18.4792 18.0804 18.1507C18.2952 17.853 18.5573 17.5998 18.7625 17.2952C18.9867 16.9632 19.2267 16.8674 19.5582 17.0727C20.2308 17.4834 20.9161 17.8701 21.576 18.3013C21.7118 18.3903 21.8381 18.6435 21.835 18.818C21.8129 19.6633 21.5318 20.3614 20.8308 20.8063C20.0256 21.3161 19.2077 21.4804 18.2952 21.1758C14.8217 20.0123 12.5544 17.4047 11.2029 13.767C10.6914 12.3879 10.9345 11.0567 11.9039 9.94453C12.2229 9.57836 12.5797 9.37988 13.0944 9.5065V9.49966Z" fill="#A47AB5"/>
<path d="M24.2412 8.56199C24.3864 8.79127 24.5443 9.01028 24.6832 9.24299C25.299 10.273 25.6969 11.3886 25.8863 12.5966C25.9811 13.1955 26.0095 13.8012 25.9905 14.4103C25.9779 14.7731 25.7032 15.0366 25.3369 15.0229C25.0116 15.0126 24.7559 14.7252 24.7685 14.3761C24.8222 12.7917 24.4622 11.3236 23.6728 9.98558C22.9244 8.71598 21.9013 7.7886 20.6256 7.18631C19.9309 6.85779 19.2046 6.6593 18.4467 6.59086C18.0868 6.55664 17.8468 6.25892 17.8752 5.88933C17.9068 5.48553 18.1783 5.23229 18.5541 5.26651C18.7278 5.28362 18.8983 5.30073 19.0688 5.32811C20.4961 5.56423 21.7781 6.16995 22.9118 7.13498C23.1549 7.3403 23.3917 7.55932 23.6033 7.80571C23.6254 7.82966 23.6538 7.85019 23.6759 7.87073C23.8622 8.10001 24.0485 8.32929 24.238 8.55857L24.2412 8.56199Z" fill="#A47AB5"/>
<path d="M23.5875 14.8006C23.3822 14.9854 23.1517 15.0196 22.9117 14.9032C22.6749 14.7903 22.5581 14.5884 22.5676 14.301C22.6023 13.353 22.4318 12.4462 22.0023 11.618C21.1782 10.0268 19.9088 9.15413 18.2352 8.97618C17.9415 8.94538 17.7141 8.74006 17.6699 8.44576C17.6226 8.1275 17.7678 7.81951 18.0204 7.69632C18.1025 7.65525 18.1878 7.64156 18.2794 7.64841C19.5204 7.74765 20.6224 8.22332 21.5981 9.06516C21.8508 9.28417 22.0876 9.52029 22.2992 9.7838C22.836 10.4511 23.2402 11.204 23.4959 12.0492C23.7233 12.8055 23.8243 13.5755 23.7833 14.3694C23.7738 14.5439 23.7138 14.6911 23.5907 14.804L23.5875 14.8006Z" fill="#A47AB5"/>
<path d="M20.654 11.3818C21.3108 12.2202 21.6297 13.1852 21.5729 14.2871C21.5539 14.6773 21.2855 14.9236 20.9161 14.9031C20.5782 14.886 20.3382 14.5951 20.354 14.2221C20.3919 13.3837 20.1424 12.6651 19.5835 12.0867C19.1541 11.6384 18.6267 11.4057 18.0299 11.3612C17.7678 11.3407 17.5752 11.2141 17.4836 10.9403C17.3921 10.67 17.4552 10.4236 17.6289 10.2114C17.752 10.0609 17.9194 10.0198 18.1025 10.0335C18.8414 10.0882 19.5077 10.3552 20.1014 10.8342C20.3035 10.9951 20.4898 11.173 20.6508 11.3818H20.654Z" fill="#A47AB5"/>
</g>
<defs>
<clipPath id="clip0_560_3416">
<rect width="19" height="32" fill="white" transform="translate(7)"/>
</clipPath>
</defs>
</svg>
