<svg width="28" height="31" viewBox="0 0 28 31" fill="none" xmlns="http://www.w3.org/2000/svg">
<path d="M7.32315 24.354L7.4713 28.2592C7.52463 29.2192 8.34834 29.9244 9.30242 29.8237L20.8995 28.3718C21.8536 28.2711 22.5943 27.4 22.5469 26.44L21.3617 13.2666" stroke="#5A2583" stroke-width="1.5" stroke-miterlimit="10" stroke-linecap="round" stroke-linejoin="round"/>
<path d="M11.8327 3.94507L7.96901 4.431C7.01493 4.53174 6.27419 5.40285 6.3216 6.36285L6.44012 8.58508" stroke="#5A2583" stroke-width="1.5" stroke-miterlimit="10" stroke-linecap="round" stroke-linejoin="round"/>
<path d="M20.8284 24.6445L9.05943 26.1497" stroke="#5A2583" stroke-width="1.5" stroke-miterlimit="10" stroke-linecap="round" stroke-linejoin="round"/>
<path d="M14.9438 27.5065C15.0861 27.5065 15.2164 27.382 15.2105 27.2398C15.2046 27.0976 15.092 26.9731 14.9438 26.9731C14.8016 26.9731 14.6712 27.0976 14.6772 27.2398C14.6831 27.382 14.7957 27.5065 14.9438 27.5065Z" fill="#5A2583"/>
<path d="M1 13.1361C1.01185 12.3124 1.1837 11.5302 1.60445 10.8131C1.88297 10.3331 2.23852 9.92423 2.67704 9.58052C2.8963 9.4146 3.09186 9.21904 3.31112 9.04719C3.6726 8.76867 4.05779 8.75089 4.44297 8.99978C4.56149 9.07682 4.68001 9.17163 4.7689 9.28423C5.01186 9.5983 5.25483 9.9183 5.47409 10.2442C5.73483 10.6294 5.97779 11.0205 6.13779 11.459C6.28002 11.8561 6.33335 12.2531 6.14965 12.6561C6.05483 12.8635 5.90668 13.0353 5.73483 13.1835C5.44446 13.4265 5.14224 13.6576 4.85186 13.9005C4.56742 14.1316 4.43112 14.4339 4.45483 14.7954C4.48446 15.2991 4.70964 15.7317 4.97038 16.1465C5.49187 16.9761 6.13779 17.705 6.84298 18.3806C7.16298 18.6828 7.50669 18.9613 7.90965 19.1568C8.26521 19.3346 8.63262 19.4354 9.02373 19.2635C9.26669 19.1628 9.42077 18.9554 9.60447 18.7835C9.87707 18.5406 10.1497 18.2857 10.4519 18.0783C10.8311 17.8176 11.2578 17.8294 11.6726 17.9954C12.0045 18.1257 12.3008 18.3154 12.5674 18.5465C12.9941 18.9139 13.4149 19.2872 13.8178 19.6783C13.96 19.8206 14.0667 20.0102 14.1556 20.1939C14.3452 20.5732 14.2504 20.9346 13.96 21.2132C13.563 21.5924 13.1541 21.9598 12.7156 22.2798C12.2237 22.6413 11.6489 22.8546 11.0445 22.9495C10.1082 23.0976 9.20151 22.9732 8.32447 22.6354C7.53632 22.3332 6.83113 21.8946 6.16742 21.385C5.26668 20.6857 4.46668 19.8857 3.74371 19.0087C3.31704 18.4931 2.90815 17.9598 2.52889 17.4087C2.09037 16.7687 1.72889 16.0754 1.45037 15.3465C1.18963 14.6531 1.03556 13.9479 1.00593 13.2072C1 13.1894 1 13.1657 1 13.1361Z" stroke="#5A2583" stroke-width="1.5" stroke-miterlimit="10" stroke-linecap="round" stroke-linejoin="round"/>
<path d="M25.1303 11.9213L15.0977 12.9702C14.0073 13.0828 13.077 12.3006 13.0236 11.2161L12.7629 4.0161C12.7036 2.93165 13.5451 1.95979 14.6296 1.8472L24.6622 0.804235C25.7526 0.691642 26.6829 1.47387 26.7363 2.55831L26.997 9.75834C27.0563 10.8369 26.2207 11.8087 25.1303 11.9213Z" stroke="#A47AB5" stroke-width="1.5" stroke-miterlimit="10" stroke-linecap="round" stroke-linejoin="round"/>
<path d="M24.3543 7.57156L24.4373 8.59675L20.8462 8.88712L20.8284 8.63823L22.3691 6.66489C22.7306 6.19674 22.8728 5.88859 22.8491 5.58045C22.8254 5.24859 22.6062 5.06489 22.3158 5.08267C22.0314 5.10637 21.8476 5.3197 21.8773 5.68119C21.8832 5.776 21.901 5.87082 21.9306 5.98934L20.698 6.08415C20.6506 5.95378 20.6269 5.82341 20.6151 5.68711C20.538 4.89304 21.2076 4.01007 22.2447 3.95081C23.2165 3.87377 24.0165 4.46637 24.0877 5.36119C24.141 6.00711 23.8328 6.54045 23.2106 7.3049L22.9025 7.67823L24.3543 7.57156Z" fill="#A47AB5"/>
<path d="M18.9083 9.17171L17.9779 7.92133L17.2609 9.30208L15.8801 9.40875L17.2194 6.908L15.5957 4.70947L16.9764 4.60281L17.8061 5.79985L18.4401 4.49021L19.8209 4.38354L18.5823 6.80726L20.2831 9.07097L18.9083 9.17171Z" fill="#A47AB5"/>
</svg>
