<?xml version="1.0" encoding="utf-8"?>
<!-- Generator: Adobe Illustrator 28.0.0, SVG Export Plug-In . SVG Version: 6.00 Build 0)  -->
<svg version="1.1" id="Capa_1" xmlns="http://www.w3.org/2000/svg" xmlns:xlink="http://www.w3.org/1999/xlink" x="0px" y="0px"
	 viewBox="0 0 23 23" style="enable-background:new 0 0 23 23;" xml:space="preserve">
<style type="text/css">
	.st0{fill:#FFFFFF;}
</style>
<g>
	<path class="st0" d="M14.2,14c-0.3,0-0.5,0.3-0.5,0.5l0.3,5.2c0,0.5-0.4,1-0.9,1l-3,0.4c0.1-0.2,0.2-0.5,0.2-0.8
		c0-0.4-0.2-0.9-0.4-1.2l3.4-0.4c0.3,0,0.5-0.3,0.4-0.6c0-0.3-0.3-0.5-0.6-0.4L3.5,19C3.2,19,3,19.3,3,19.6c0,0.3,0.2,0.4,0.5,0.4
		c0,0,0,0,0.1,0l2.9-0.4c-0.1,0.2-0.2,0.5-0.2,0.8c0,0.5,0.2,0.9,0.5,1.2L3.7,22c-0.2,0-0.5,0-0.6-0.2c-0.2-0.2-0.3-0.4-0.3-0.6
		L1.8,3.3c0-0.5,0.4-1,0.9-1.1l9.5-1.2c0.2,0,0.5,0,0.6,0.2c0.2,0.2,0.3,0.4,0.3,0.6L13.2,3c0,0.3,0.2,0.5,0.5,0.5
		c0.3,0,0.5-0.3,0.5-0.5l-0.1-1.1c0-0.5-0.3-1-0.6-1.3C13.1,0.2,12.6,0,12,0.1L2.6,1.2c-1,0.1-1.9,1.1-1.8,2.1l0.9,17.9
		c0,0.5,0.3,1,0.6,1.3C2.7,22.8,3.1,23,3.6,23c0.1,0,0.1,0,0.2,0l9.5-1.2c1-0.1,1.9-1.1,1.8-2.1l-0.3-5.3C14.8,14.2,14.5,14,14.2,14
		z"/>
	<path class="st0" d="M21.6,4.7c0-0.4-0.2-0.7-0.6-1c-0.4-0.3-1-0.5-1.6-0.4L6.8,4.6C5.7,4.8,4.9,5.6,5,6.6L5.6,13
		c0,0.4,0.2,0.7,0.4,1c0.3,0.3,0.7,0.4,1.2,0.4c0.1,0,0.2,0,0.2,0l13-1.4c1-0.1,1.8-0.8,1.7-1.7L21.6,4.7z M20.4,12l-13,1.4
		c-0.3,0-0.5,0-0.6-0.2c-0.1-0.1-0.1-0.2-0.1-0.3L6,6.5c0-0.4,0.4-0.7,1-0.8l12.5-1.4c0,0,0.1,0,0.1,0c0.3,0,0.5,0.1,0.7,0.2
		c0.1,0.1,0.2,0.2,0.2,0.3l0.7,6.5C21.2,11.6,20.8,11.9,20.4,12z"/>
	<polygon class="st0" points="9.3,8.4 8.5,7.1 8,8.5 6.5,8.9 7.7,9.8 7.6,11.3 8.9,10.5 10.2,11.1 9.8,9.6 10.8,8.5 	"/>
	<polygon class="st0" points="14.2,7.9 13.4,6.6 12.9,8 11.5,8.4 12.6,9.3 12.5,10.8 13.8,10 15.2,10.6 14.8,9.1 15.7,8 	"/>
	<polygon class="st0" points="18.4,6.1 17.8,7.5 16.4,7.9 17.6,8.8 17.5,10.3 18.7,9.5 20.1,10.1 19.7,8.6 20.7,7.5 19.2,7.4 	"/>
</g>
</svg>
