<?xml version="1.0" encoding="utf-8"?>
<!-- Generator: Adobe Illustrator 28.0.0, SVG Export Plug-In . SVG Version: 6.00 Build 0)  -->
<svg version="1.1" id="Capa_1" xmlns="http://www.w3.org/2000/svg" xmlns:xlink="http://www.w3.org/1999/xlink" x="0px" y="0px"
	 viewBox="0 0 23 23" style="enable-background:new 0 0 23 23;" xml:space="preserve">
<style type="text/css">
	.st0{fill:#FFFFFF;}
</style>
<g>
	<path class="st0" d="M11.5,16c-1.2,0-2.4-0.5-3.2-1.3c-0.9-0.8-1.3-2-1.3-3.2c0-1.2,0.5-2.3,1.3-3.2c0.9-0.8,2-1.3,3.2-1.3
		c1.2,0,2.4,0.5,3.2,1.3c0.9,0.9,1.3,2,1.3,3.2c0,1.2-0.5,2.4-1.3,3.2C13.9,15.5,12.7,16,11.5,16z M11.5,7.9c-1,0-1.9,0.4-2.6,1.1
		c-0.7,0.7-1.1,1.6-1.1,2.5s0.4,1.9,1.1,2.5c1.4,1.4,3.8,1.4,5.2,0c0.7-0.7,1.1-1.6,1.1-2.5c0-1-0.4-1.9-1.1-2.5
		C13.4,8.3,12.5,7.9,11.5,7.9z"/>
</g>
<g>
	<path class="st0" d="M22.2,14.4L22.2,14.4c0.3,0.3,0.4,0.7,0.3,1.1c-0.2,0.5-0.4,1-0.7,1.5l-0.2,0.4c-0.3,0.5-0.6,1-1,1.4
		c-0.3,0.3-0.7,0.4-1.1,0.3l-1.8-0.6c-0.4-0.1-0.9-0.1-1.4,0.2c-0.2,0.1-0.5,0.3-0.7,0.4c-0.4,0.2-0.8,0.6-0.9,1.1L14.3,22
		c-0.1,0.4-0.4,0.7-0.8,0.8c-0.6,0.1-1.3,0.2-1.9,0.2c-0.7,0-1.3-0.1-1.9-0.2l-0.1,0c-0.4-0.1-0.7-0.4-0.8-0.8l-0.4-1.8
		c-0.1-0.4-0.4-0.8-0.9-1.1C7.2,19,7,18.9,6.8,18.8c-0.4-0.3-0.9-0.3-1.4-0.2l-1.8,0.6c-0.2,0.1-0.4,0.1-0.6,0
		c-0.2-0.1-0.4-0.2-0.5-0.3c-0.1-0.1-0.1-0.1-0.2-0.2c-0.3-0.4-0.6-0.8-0.8-1.2l-0.2-0.4c-0.2-0.4-0.4-0.8-0.6-1.3l-0.1-0.3l0,0
		c-0.1-0.4,0-0.8,0.3-1.1l1.4-1.3c0.3-0.3,0.5-0.8,0.5-1.3c0-0.1,0-0.7,0-0.8c0-0.5-0.2-1-0.5-1.3L0.8,8.6C0.5,8.3,0.4,7.9,0.5,7.5
		C0.7,7,1,6.5,1.2,5.9l0.2-0.4c0.3-0.5,0.6-1,1-1.4c0.3-0.3,0.7-0.4,1.1-0.3l1.8,0.6c0.4,0.1,0.9,0.1,1.4-0.2C7,4.1,7.2,4,7.5,3.8
		c0.4-0.2,0.8-0.6,0.9-1.1L8.7,1c0.1-0.4,0.4-0.7,0.8-0.8c1.2-0.2,2.6-0.2,3.9,0c0.4,0.1,0.7,0.4,0.8,0.8l0.4,1.8
		c0.1,0.4,0.4,0.8,0.9,1.1C15.8,4,16,4.1,16.2,4.2c0.4,0.3,0.9,0.3,1.4,0.2l1.8-0.6C19.7,3.8,20,3.8,20.3,4c0.1,0.1,0.2,0.1,0.2,0.2
		c0.1,0.1,0.1,0.1,0.2,0.2c0.3,0.4,0.6,0.8,0.8,1.2l0.2,0.4c0.2,0.4,0.4,0.8,0.6,1.3l0.1,0.3l0,0c0.1,0.4,0,0.8-0.3,1l-1.4,1.3
		c-0.3,0.3-0.5,0.8-0.5,1.3c0,0.1,0,0.7,0,0.8c0,0.5,0.2,1,0.5,1.3L22.2,14.4 M9.8,21.9c1.2,0.2,2.4,0.2,3.5,0c0,0,0.1,0,0.1-0.1
		l0.4-1.8c0.2-0.7,0.7-1.3,1.3-1.7c0.2-0.1,0.4-0.2,0.6-0.4c0.7-0.4,1.4-0.5,2.1-0.3l1.8,0.6c0.1,0,0.1,0,0.1,0
		c0.3-0.4,0.7-0.8,0.9-1.3l0.2-0.4c0.3-0.5,0.5-0.9,0.7-1.4c0,0,0-0.1,0-0.1l-1.4-1.3c-0.5-0.5-0.8-1.2-0.8-2c0-0.1,0-0.6,0-0.7
		c0-0.8,0.3-1.5,0.8-2l1.4-1.3c0,0,0.1-0.1,0-0.1c0-0.1-0.1-0.1-0.1-0.2l-0.2-0.3l0,0c-0.1-0.3-0.3-0.5-0.4-0.8L20.8,6
		C20.5,5.7,20.3,5.4,20,5c-0.1-0.1-0.1-0.2-0.2-0.2c0,0-0.1,0-0.1,0l-1.8,0.6c-0.7,0.2-1.5,0.1-2.1-0.3c-0.2-0.1-0.4-0.2-0.6-0.3
		c-0.7-0.3-1.2-1-1.3-1.7l-0.4-1.8c0,0,0-0.1-0.1-0.1c-1.2-0.2-2.4-0.2-3.6,0c0,0-0.1,0-0.1,0.1L9.2,3C9,3.7,8.6,4.3,7.9,4.7
		C7.7,4.8,7.5,4.9,7.3,5C6.6,5.4,5.8,5.5,5.1,5.3L3.3,4.7c-0.1,0-0.1,0-0.1,0C2.8,5.2,2.5,5.6,2.2,6.1L2,6.4
		C1.8,6.9,1.6,7.3,1.4,7.8c0,0,0,0.1,0,0.1l1.4,1.3c0.5,0.5,0.8,1.2,0.8,2c0,0.1,0,0.6,0,0.7c0,0.8-0.3,1.5-0.8,2l-1.4,1.3
		c0,0-0.1,0.1,0,0.1c0,0.1,0.1,0.2,0.1,0.2l0.2,0.3l0,0c0.1,0.3,0.3,0.5,0.4,0.8L2.2,17C2.5,17.3,2.7,17.7,3,18
		c0.1,0.1,0.1,0.2,0.2,0.2c0.1,0,0.1,0,0.1,0l1.8-0.6c0.7-0.2,1.5-0.1,2.1,0.3c0.2,0.1,0.4,0.2,0.6,0.3c0.7,0.3,1.2,1,1.3,1.7
		l0.4,1.8C9.6,21.9,9.7,21.9,9.8,21.9L9.8,21.9z"/>
</g>
</svg>
