<svg width="32" height="32" viewBox="0 0 32 32" fill="none" xmlns="http://www.w3.org/2000/svg">
<path d="M11.6011 24.8293L11.9191 24.2056C11.6805 24.084 11.45 23.9528 11.2224 23.8116C10.6376 23.4408 9.88432 23.2853 9.16321 23.5119L9.16279 23.5121L7.19486 24.1318C7.19467 24.1319 7.19447 24.1319 7.19428 24.132C7.00114 24.1921 6.81554 24.1287 6.71994 24.0162C6.3404 23.5652 5.99435 23.0876 5.68606 22.5835L5.45851 22.1984C5.17321 21.6926 4.92642 21.1705 4.72189 20.6274C4.67232 20.4945 4.70613 20.322 4.84797 20.1969L4.85108 20.1941L6.38783 18.8218L6.38784 18.8218L6.39142 18.8186C6.94537 18.317 7.19552 17.5998 7.16308 16.9081C7.15811 16.7665 7.15372 16.6382 7.15372 16.5073C7.15372 16.3764 7.15811 16.2481 7.16309 16.1064C7.19515 15.4177 6.95534 14.6944 6.3868 14.1919L4.852 12.8165L4.85201 12.8165L4.84796 12.8129C4.7061 12.6877 4.6723 12.5152 4.72192 12.3822C4.92645 11.8392 5.17323 11.3172 5.45851 10.8113L5.68605 10.4263C5.99455 9.92184 6.34086 9.44397 6.72071 8.99267L6.72072 8.99267L6.72262 8.99039C6.81441 8.88039 6.99604 8.81583 7.19486 8.87795L7.19534 8.8781L9.16818 9.49297C9.16843 9.49305 9.16869 9.49312 9.16894 9.4932C9.89197 9.72013 10.6395 9.56243 11.2261 9.19414C11.4612 9.04806 11.6869 8.91577 11.9146 8.80397L11.9146 8.80402L11.9225 8.8C12.5413 8.48639 13.0556 7.91981 13.2233 7.18948L13.2233 7.18948L13.2243 7.18497L13.6668 5.19801C13.7081 5.01363 13.8444 4.89185 13.9995 4.86701L13.9995 4.86705L14.0067 4.86583C14.6526 4.75552 15.3193 4.7 16.0025 4.7C16.6856 4.7 17.354 4.75552 18.0031 4.86174L18.0055 4.86213C18.1606 4.88697 18.2969 5.00875 18.3382 5.19313L18.7802 7.1781C18.7803 7.17841 18.7803 7.17872 18.7804 7.17903C18.9423 7.91438 19.4597 8.48209 20.0828 8.79532C20.3207 8.91668 20.5506 9.04754 20.7776 9.18843C21.3669 9.56198 22.1175 9.70706 22.8308 9.48994L22.8308 9.48995L22.8352 9.48857L24.8096 8.87322L24.8101 8.87307C25.0034 8.81267 25.1892 8.87604 25.285 8.98861C25.6645 9.43967 26.0106 9.91727 26.3189 10.4214L26.5465 10.8064C26.774 11.2098 26.977 11.6235 27.1536 12.05L27.2779 12.3819C27.3278 12.5149 27.294 12.6876 27.152 12.8129L27.1489 12.8156L25.6122 14.188L25.6122 14.188L25.6086 14.1912C25.0547 14.6928 24.8045 15.4099 24.8369 16.1015C24.8419 16.2432 24.8463 16.3715 24.8463 16.5024C24.8463 16.6334 24.8419 16.7617 24.8369 16.9034C24.8048 17.5923 25.0449 18.3159 25.6138 18.8184C25.6144 18.8189 25.615 18.8194 25.6156 18.82L27.1489 20.1892L27.152 20.192C27.2939 20.3172 27.3277 20.4898 27.278 20.6228C27.0735 21.1658 26.8268 21.6877 26.5415 22.1935L26.314 22.5786C26.0054 23.083 25.6591 23.5609 25.2793 24.0122L25.2774 24.0145C25.1856 24.1245 25.004 24.1891 24.8051 24.1269L24.8047 24.1268L22.8318 23.5119C22.8315 23.5118 22.8312 23.5117 22.8309 23.5116C22.108 23.2848 21.3607 23.4424 20.7742 23.8106C20.5389 23.9567 20.3132 24.0891 20.0854 24.2009L20.0854 24.2009L20.0775 24.2049C19.4587 24.5185 18.9444 25.0851 18.7767 25.8154L18.7767 25.8154L18.7757 25.8199L18.3332 27.8069C18.2919 27.9912 18.1556 28.113 18.0005 28.1379L17.9981 28.1383C17.3491 28.2445 16.6807 28.3 15.9975 28.3C15.3144 28.3 14.646 28.2445 13.9969 28.1383L13.9945 28.1379C13.8395 28.113 13.7032 27.9914 13.6619 27.8072C13.6619 27.8071 13.6618 27.807 13.6618 27.8069L13.2198 25.8219C13.2197 25.8215 13.2196 25.821 13.2195 25.8206C13.0568 25.0818 12.5314 24.516 11.9176 24.2049L11.6011 24.8293ZM11.6011 24.8293C12.0636 25.0637 12.4267 25.4739 12.5361 25.9721L12.9787 27.9598L9.37306 24.1797C9.87039 24.0234 10.4125 24.126 10.8501 24.4044C11.0938 24.5558 11.3425 24.6974 11.6011 24.8293ZM11.6061 8.17562C11.3475 8.3026 11.0988 8.44911 10.8551 8.60051C10.4125 8.87888 9.87536 8.98144 9.37803 8.82516L7.40362 8.20981C6.96597 8.07306 6.47859 8.19027 6.18516 8.5419L11.6061 8.17562ZM11.6061 8.17562C12.0686 7.9412 12.4267 7.53096 12.5411 7.03282M11.6061 8.17562L12.5411 7.03282M12.5411 7.03282L12.9837 5.04513C13.0832 4.6007 13.4313 4.24907 13.8888 4.17582M12.5411 7.03282L13.8888 4.17582M13.8888 4.17582C14.5751 4.05861 15.2814 4 16.0025 4C16.7236 4 17.4298 4.05861 18.1161 4.17093L13.8888 4.17582ZM16.0025 21.1095C17.2393 21.1095 18.4279 20.6271 19.3063 19.7646C20.1851 18.9016 20.6811 17.7284 20.6811 16.5024C20.6811 15.2764 20.1851 14.1033 19.3063 13.2403C18.4279 12.3778 17.2393 11.8954 16.0025 11.8954C14.7657 11.8954 13.5771 12.3778 12.6987 13.2403C11.8199 14.1033 11.3238 15.2764 11.3238 16.5024C11.3238 17.7284 11.8199 18.9016 12.6987 19.7646C13.5771 20.6271 14.7657 21.1095 16.0025 21.1095Z" stroke="white" stroke-width="1.4"/>
</svg>
