<?xml version="1.0" encoding="utf-8"?>
<!-- Generator: Adobe Illustrator 28.0.0, SVG Export Plug-In . SVG Version: 6.00 Build 0)  -->
<svg version="1.1" id="Capa_1" xmlns="http://www.w3.org/2000/svg" xmlns:xlink="http://www.w3.org/1999/xlink" x="0px" y="0px"
	 viewBox="0 0 23 23" style="enable-background:new 0 0 23 23;" xml:space="preserve">
<style type="text/css">
	.st0{fill:#FFFFFF;}
</style>
<path class="st0" d="M16.3,23H6.7c-1.1,0-2.1-0.3-2.9-1.1c-0.8-0.7-1.3-1.7-1.3-2.8V14c0-0.2,0.1-0.4,0.2-0.6
	c0.2-0.2,0.4-0.2,0.6-0.2c0.2,0,0.4,0.1,0.6,0.2C4,13.5,4.1,13.7,4.1,14v5.1c0.1,0.6,0.4,1.2,0.8,1.7c0.5,0.4,1.1,0.6,1.8,0.6h9.6
	c0.6,0,1.3-0.2,1.8-0.6c0.5-0.4,0.8-1,0.8-1.7V14c0-0.2,0.1-0.4,0.2-0.6c0.2-0.2,0.4-0.2,0.6-0.2c0.2,0,0.4,0.1,0.6,0.2
	c0.2,0.2,0.2,0.4,0.2,0.6v5.1c-0.1,1.1-0.5,2.1-1.3,2.8C18.4,22.6,17.4,23,16.3,23z M22.8,12.1c0.1-0.1,0.1-0.2,0.2-0.3
	c0-0.1,0.1-0.2,0.1-0.3c0-0.1,0-0.2-0.1-0.3c0-0.1-0.1-0.2-0.2-0.3L12.1,0.2c-0.1-0.1-0.2-0.1-0.3-0.2C11.7,0,11.6,0,11.5,0
	c-0.1,0-0.2,0-0.3,0.1c-0.1,0-0.2,0.1-0.3,0.2L0.2,10.9C0.1,11.1,0,11.3,0,11.5c0,0.2,0.1,0.4,0.2,0.6c0.2,0.2,0.4,0.2,0.6,0.2
	c0.2,0,0.4-0.1,0.6-0.2L11.5,2l10.1,10.1c0.1,0.1,0.2,0.1,0.3,0.2c0.1,0,0.2,0.1,0.3,0.1s0.2,0,0.3-0.1
	C22.6,12.2,22.7,12.2,22.8,12.1z"/>
</svg>
