<svg width="32" height="32" viewBox="0 0 32 32" fill="none" xmlns="http://www.w3.org/2000/svg">
<path d="M16.5898 5.91504C16.3294 5.91504 16.1149 6.12951 16.0996 6.38994C16.0996 6.65037 16.3141 6.86484 16.5745 6.86484C16.8349 6.86484 17.0494 6.65037 17.0494 6.38994C17.0494 6.12951 16.8349 5.91504 16.5745 5.91504H16.5898Z" fill="white" stroke="white" stroke-width="0.3" stroke-miterlimit="10"/>
<path d="M16.5734 8.79492C14.7197 8.79492 13.2184 10.2656 13.2031 12.1192C13.2031 13.9729 14.6738 15.4742 16.5274 15.4895C16.5274 15.4895 16.5428 15.4895 16.5581 15.4895C18.3964 15.4895 19.8977 14.0035 19.913 12.1652C19.913 10.3115 18.4424 8.81024 16.5887 8.79492H16.5734ZM16.5428 14.5397C16.5428 14.5397 16.5428 14.5397 16.5274 14.5397C15.21 14.5397 14.1376 13.452 14.1529 12.1346C14.1529 10.8171 15.2406 9.76004 16.5428 9.76004C16.5428 9.76004 16.5428 9.76004 16.5581 9.76004C17.8755 9.76004 18.9479 10.8477 18.9326 12.1652C18.9326 13.4827 17.8449 14.5397 16.5428 14.5397Z" fill="white" stroke="white" stroke-width="0.3" stroke-miterlimit="10"/>
<path d="M18.6414 6.28353C18.3963 6.19161 18.1206 6.32948 18.0286 6.57459C17.9367 6.81971 18.0746 7.09545 18.3197 7.18737C20.4338 7.93802 21.8279 9.94486 21.8125 12.1815C21.8125 12.4419 22.027 12.6564 22.2874 12.6564C22.5479 12.6564 22.7623 12.4419 22.7623 12.1815C22.7777 9.53124 21.1232 7.15673 18.6261 6.26821L18.6414 6.28353Z" fill="white" stroke="white" stroke-width="0.3" stroke-miterlimit="10"/>
<path d="M19.4845 22.0156C22.6709 17.91 24.6624 15.7806 24.6931 12.1959C24.7237 7.67666 21.0624 4 16.5585 4C12.0546 4 8.43918 7.61538 8.40854 12.0733C8.37791 15.75 10.4154 17.8947 13.6171 22.0156C10.4307 22.4905 8.40854 23.6854 8.40854 25.1561C8.40854 26.1365 9.31239 27.0251 10.9669 27.6378C12.4682 28.2047 14.4444 28.511 16.5585 28.511C18.6725 28.511 20.6487 28.2047 22.15 27.6378C23.8045 27.0251 24.7084 26.1365 24.7084 25.1561C24.7084 23.6854 22.7015 22.4905 19.4998 22.0156H19.4845ZM9.37367 12.0886C9.40431 8.15156 12.6214 4.96512 16.5585 4.96512C20.4956 4.96512 23.7739 8.21284 23.7433 12.1959C23.7126 15.5968 21.6139 17.6955 18.2436 22.0922C17.6461 22.8735 17.0946 23.6088 16.5738 24.3442C16.0529 23.6242 15.5167 22.8888 14.904 22.0922C11.3958 17.5117 9.37367 15.5815 9.38899 12.0886H9.37367ZM16.5585 27.5612C12.4529 27.5612 9.37367 26.3051 9.37367 25.1714C9.37367 24.3288 11.212 23.2718 14.2912 22.9041C14.9806 23.7927 15.578 24.6199 16.1602 25.4472C16.2521 25.5697 16.39 25.6463 16.5431 25.6463C16.6963 25.6463 16.8495 25.5697 16.9261 25.4472C17.5083 24.6199 18.121 23.7927 18.7951 22.9041C21.8743 23.2718 23.7126 24.3288 23.7126 25.1714C23.7126 26.3051 20.6487 27.5612 16.5278 27.5612H16.5585Z" fill="white" stroke="white" stroke-width="0.3" stroke-miterlimit="10"/>
</svg>
