<?xml version="1.0" encoding="utf-8"?>
<!-- Generator: Adobe Illustrator 28.0.0, SVG Export Plug-In . SVG Version: 6.00 Build 0)  -->
<svg version="1.1" id="Capa_1" xmlns="http://www.w3.org/2000/svg" xmlns:xlink="http://www.w3.org/1999/xlink" x="0px" y="0px"
	 viewBox="0 0 23 23" style="enable-background:new 0 0 23 23;" xml:space="preserve">
<style type="text/css">
	.st0{fill:#FFFFFF;}
</style>
<g>
	<polygon class="st0" points="11.5,1.8 11.5,1.8 11.5,1.8 	"/>
	<path class="st0" d="M11.5,2.7c0.2,0,0.4-0.2,0.4-0.4c0-0.2-0.2-0.4-0.4-0.4c-0.2,0-0.4,0.2-0.5,0.4C11.1,2.5,11.3,2.7,11.5,2.7z"
		/>
	<path class="st0" d="M11.5,10.8c1.7,0,3.1-1.4,3.1-3.1c0-1.7-1.4-3.1-3.1-3.2h0c-1.7,0-3.1,1.4-3.2,3.1C8.4,9.4,9.7,10.8,11.5,10.8
		C11.5,10.8,11.5,10.8,11.5,10.8z M9.2,7.6c0-1.2,1-2.2,2.2-2.2c0,0,0,0,0,0c1.2,0,2.2,1,2.2,2.3c0,1.2-1,2.2-2.2,2.2c0,0,0,0,0,0
		C10.2,9.9,9.2,8.9,9.2,7.6z"/>
	<path class="st0" d="M13.1,3c2,0.7,3.3,2.6,3.3,4.7c0,0.2,0.2,0.4,0.4,0.4s0.4-0.2,0.4-0.4c0-2.5-1.5-4.7-3.9-5.5l0,0
		c-0.2-0.1-0.5,0-0.6,0.3C12.8,2.7,12.9,2.9,13.1,3z"/>
	<path class="st0" d="M14.3,16.9L14.3,16.9c3-3.8,4.8-5.8,4.9-9.2c0-4.2-3.4-7.7-7.6-7.7C7.3,0,3.9,3.4,3.9,7.6
		c0,3.4,1.9,5.5,4.9,9.3c-3,0.4-4.9,1.6-4.9,2.9c0,0.9,0.8,1.8,2.4,2.3c1.4,0.5,3.3,0.8,5.2,0.8c2,0,3.8-0.3,5.2-0.8
		c1.5-0.6,2.4-1.4,2.4-2.3C19.1,18.5,17.3,17.3,14.3,16.9z M4.8,7.6L4.8,7.6c0-3.7,3-6.7,6.7-6.7c3.7,0,6.8,3,6.7,6.8
		c0,3.2-2,5.2-5.2,9.3c-0.6,0.7-1.1,1.4-1.6,2.1c-0.5-0.7-1-1.4-1.6-2.1C6.7,12.7,4.8,10.9,4.8,7.6z M11.5,22.1
		c-3.8,0-6.7-1.2-6.7-2.2c0-0.8,1.7-1.8,4.6-2.1c0.6,0.8,1.2,1.6,1.8,2.4c0.1,0.1,0.2,0.2,0.4,0.2c0.1,0,0.3-0.1,0.4-0.2
		c0.5-0.8,1.1-1.5,1.8-2.4c2.9,0.3,4.6,1.3,4.6,2.1C18.2,20.9,15.3,22.1,11.5,22.1z"/>
</g>
</svg>
