<?xml version="1.0" encoding="utf-8"?>
<!-- Generator: Adobe Illustrator 28.0.0, SVG Export Plug-In . SVG Version: 6.00 Build 0)  -->
<svg version="1.1" id="Capa_1" xmlns="http://www.w3.org/2000/svg" xmlns:xlink="http://www.w3.org/1999/xlink" x="0px" y="0px"
	 viewBox="0 0 23 23" style="enable-background:new 0 0 23 23;" xml:space="preserve">
<style type="text/css">
	.st0{fill-rule:evenodd;clip-rule:evenodd;fill:#FFFFFF;}
</style>
<g>
	<path class="st0" d="M4.9,16.6c-0.1,0.3,0,0.7,0.3,0.9c0.3,0.1,0.7,0,0.9-0.3C6.4,16.7,6.6,16.3,7,16c0.7-0.7,1.7-1.1,2.7-1.1h1.8
		c0,0,0,0,0,0s0,0,0,0h1.8c1,0,2,0.4,2.7,1.1c0.3,0.3,0.6,0.7,0.8,1.2c0.1,0.3,0.5,0.5,0.9,0.3c0.3-0.1,0.5-0.5,0.3-0.9
		c-0.3-0.6-0.6-1.1-1.1-1.6c-0.6-0.6-1.4-1.1-2.3-1.3c1.2-1,2-2.4,2-4c0-2.9-2.3-5.2-5.2-5.2c-2.9,0-5.2,2.3-5.2,5.2
		c0,1.6,0.8,3.1,2,4C7.4,14,6.7,14.4,6,15C5.6,15.5,5.2,16.1,4.9,16.6z M7.7,9.7c0-2.1,1.7-3.8,3.8-3.8c2.1,0,3.8,1.7,3.8,3.8
		c0,2.1-1.7,3.8-3.8,3.8c0,0,0,0,0,0C9.4,13.5,7.7,11.8,7.7,9.7z"/>
	<path class="st0" d="M22.3,7.7c-0.1-0.4-0.5-0.5-0.9-0.4c-0.4,0.1-0.5,0.5-0.4,0.9c0.4,1.1,0.6,2.2,0.6,3.4
		c0,5.6-4.5,10.1-10.1,10.1c-5.6,0-10.1-4.5-10.1-10.1c0-5.6,4.5-10.1,10.1-10.1c1.2,0,2.3,0.2,3.4,0.6c0.4,0.1,0.7-0.1,0.9-0.4
		c0.1-0.4-0.1-0.7-0.4-0.9C14.1,0.2,12.8,0,11.5,0C5.2,0,0,5.2,0,11.5C0,17.8,5.2,23,11.5,23S23,17.8,23,11.5
		C23,10.2,22.8,8.9,22.3,7.7z"/>
	<path class="st0" d="M18.2,6.6c0.3,0.3,0.7,0.3,1,0L22.8,3c0.3-0.3,0.3-0.7,0-1c-0.3-0.3-0.7-0.3-1,0l-3.1,3.1l-1.3-1.3
		c-0.3-0.3-0.7-0.3-1,0c-0.3,0.3-0.3,0.7,0,1L18.2,6.6z"/>
</g>
</svg>
