<?xml version="1.0" encoding="utf-8"?>
<!-- Generator: Adobe Illustrator 28.0.0, SVG Export Plug-In . SVG Version: 6.00 Build 0)  -->
<svg version="1.1" id="Capa_1" xmlns="http://www.w3.org/2000/svg" xmlns:xlink="http://www.w3.org/1999/xlink" x="0px" y="0px"
	 viewBox="0 0 23 23" style="enable-background:new 0 0 23 23;" xml:space="preserve">
<style type="text/css">
	.st0{fill:#FFFFFF;}
</style>
<g>
	<path class="st0" d="M11.5,0C5.2,0,0,5.2,0,11.5C0,17.8,5.2,23,11.5,23C17.8,23,23,17.8,23,11.5C23,5.2,17.8,0,11.5,0z M11.5,22
		C5.7,22,1,17.3,1,11.5C1,5.7,5.7,1,11.5,1C17.3,1,22,5.7,22,11.5C22,17.3,17.3,22,11.5,22z"/>
	<path class="st0" d="M18.6,9c-0.5-1.5-1.5-2.8-2.8-3.7c-1.3-0.9-2.8-1.4-4.4-1.4C9.7,4,8.2,4.5,7,5.4C5.7,6.4,4.8,7.7,4.3,9.2
		c-0.5,1.5-0.4,3.1,0.1,4.6C5,15.2,6,16.5,7.3,17.4c0.1,0.1,0.2,0.1,0.3,0.1c0.2,0,0.3-0.1,0.4-0.2c0.2-0.2,0.1-0.5-0.1-0.7
		c-1.1-0.8-2-1.9-2.5-3.1c-0.5-1.3-0.5-2.6-0.1-3.9c0.4-1.3,1.2-2.4,2.3-3.2C8.7,5.4,10,5,11.3,5c1.4,0,2.7,0.4,3.9,1.2
		c1.1,0.8,2,1.9,2.4,3.2c0.4,1.3,0.5,2.6,0.1,3.9c-0.4,1.3-1.2,2.4-2.3,3.2c-0.2,0.2-0.3,0.5-0.1,0.7c0.2,0.2,0.5,0.3,0.7,0.1
		c1.3-0.9,2.2-2.2,2.7-3.7C19.1,12.1,19.1,10.5,18.6,9z"/>
	<path class="st0" d="M13.2,17h-2.8c-0.3,0-0.5,0.2-0.5,0.5s0.2,0.5,0.5,0.5h2.8c0.3,0,0.5-0.2,0.5-0.5S13.5,17,13.2,17z"/>
	<path class="st0" d="M11.5,7C11.2,7,11,7.2,11,7.5v3.3c-0.6,0.2-1,0.8-1,1.4s0.4,1.2,1,1.4V14c0,0.3,0.2,0.5,0.5,0.5S12,14.3,12,14
		v-0.3c0.6-0.2,1-0.8,1-1.4s-0.4-1.2-1-1.4V7.5C12,7.2,11.8,7,11.5,7z"/>
</g>
</svg>
