<?xml version="1.0" encoding="utf-8"?>
<!-- Generator: Adobe Illustrator 28.0.0, SVG Export Plug-In . SVG Version: 6.00 Build 0)  -->
<svg version="1.1" id="Capa_1" xmlns="http://www.w3.org/2000/svg" xmlns:xlink="http://www.w3.org/1999/xlink" x="0px" y="0px"
	 viewBox="0 0 23 23" style="enable-background:new 0 0 23 23;" xml:space="preserve">
<style type="text/css">
	.st0{fill:#FFFFFF;}
</style>
<path class="st0" d="M12.5,10.1V5c1.1,0.2,2.1,0.6,3,1.3c0.2,0.1,0.4,0.2,0.6,0.2c0.7,0,1.2-0.6,1.2-1.2c0-0.3-0.1-0.6-0.3-0.8
	c-1.3-1.1-2.9-1.7-4.5-1.8V0.9c0-0.5-0.4-0.9-0.9-0.9c0,0,0,0,0,0c-0.5,0-0.9,0.4-0.9,0.9v1.7C7.4,2.8,5.2,4.8,5.2,7.5
	c0,3.3,2.8,4.2,5.5,4.9v5.8c-1.4-0.2-2.8-0.8-3.8-1.7c-0.2-0.2-0.5-0.3-0.7-0.3c-0.7,0-1.2,0.6-1.2,1.3c0,0.3,0.1,0.6,0.3,0.8
	c1.5,1.4,3.4,2.1,5.4,2.2v1.6c0,0,0,0,0,0c0,0.5,0.4,0.9,0.9,0.9c0.5,0,0.9-0.4,0.9-0.9v-1.6c4-0.3,5.6-2.7,5.6-5.2
	C18.1,11.8,15.2,10.8,12.5,10.1z M10.7,9.6C9.1,9.1,7.9,8.7,7.9,7.3S9,5,10.7,4.9V9.6z M12.5,18.3V13c1.6,0.5,2.9,1.1,2.9,2.6
	C15.4,16.7,14.7,18,12.5,18.3z"/>
</svg>
