<?xml version="1.0" encoding="utf-8"?>
<!-- Generator: Adobe Illustrator 28.0.0, SVG Export Plug-In . SVG Version: 6.00 Build 0)  -->
<svg version="1.1" id="Capa_1" xmlns="http://www.w3.org/2000/svg" xmlns:xlink="http://www.w3.org/1999/xlink" x="0px" y="0px"
	 viewBox="0 0 23 23" style="enable-background:new 0 0 23 23;" xml:space="preserve">
<style type="text/css">
	.st0{fill:#FFFFFF;}
</style>
<g>
	<path class="st0" d="M3.3,15.1l-2.7,0.5C0.2,15.7,0,16,0,16.4l0.8,5c0.1,0.4,0.4,0.7,0.8,0.6l2.7-0.5c0.4-0.1,0.6-0.4,0.6-0.8
		l-0.8-5C4,15.3,3.6,15,3.3,15.1z"/>
	<path class="st0" d="M14.1,5.7l-2.7,0.5c-0.4,0.1-0.6,0.4-0.6,0.8l2,12.1c0.1,0.4,0.4,0.7,0.8,0.6l2.7-0.5c0.4-0.1,0.6-0.4,0.6-0.8
		l-2-12.1C14.9,5.9,14.5,5.6,14.1,5.7z"/>
	<path class="st0" d="M20.4,1.6c-0.1-0.4-0.4-0.7-0.8-0.6l-2.7,0.5c-0.4,0.1-0.6,0.4-0.6,0.8L18.9,18c0.1,0.4,0.4,0.7,0.8,0.6
		l2.7-0.5c0.4-0.1,0.6-0.4,0.6-0.8L20.4,1.6z"/>
	<path class="st0" d="M8.8,10.7l-2.7,0.5c-0.4,0.1-0.6,0.4-0.6,0.8l1.4,8.2C7,20.7,7.3,21,7.7,20.9l2.7-0.5c0.4-0.1,0.6-0.4,0.6-0.8
		l-1.4-8.2C9.5,10.9,9.1,10.7,8.8,10.7z"/>
</g>
</svg>
