<?xml version="1.0" encoding="utf-8"?>
<!-- Generator: Adobe Illustrator 28.0.0, SVG Export Plug-In . SVG Version: 6.00 Build 0)  -->
<svg version="1.1" id="Capa_1" xmlns="http://www.w3.org/2000/svg" xmlns:xlink="http://www.w3.org/1999/xlink" x="0px" y="0px"
	 viewBox="0 0 23 23" style="enable-background:new 0 0 23 23;" xml:space="preserve">
<style type="text/css">
	.st0{fill:#FFFFFF;}
</style>
<path class="st0" d="M21,5.4h-2.7c0.4-0.6,0.7-1.3,0.7-2c0-1.9-1.5-3.4-3.4-3.4c-1.1,0-1.9,0.4-2.6,1.3C12.4,2,12,3,11.5,4.3
	C11,3,10.6,2,10.1,1.3C9.4,0.4,8.6,0,7.5,0C5.6,0,4.1,1.5,4.1,3.4c0,0.8,0.3,1.5,0.7,2H2c-1.1,0-2,0.9-2,2v1.3
	c0,0.9,0.6,1.6,1.3,1.9V21c0,1.1,0.9,2,2,2h16.3c1.1,0,2-0.9,2-2V10.7c0.8-0.3,1.3-1,1.3-1.9V7.4C23,6.3,22.1,5.4,21,5.4z M12.7,4.8
	c1-2.6,1.4-3.4,2.8-3.4c1.1,0,2,0.9,2,2c0,1.1-0.9,2-2,2h-3C12.6,5.2,12.7,5,12.7,4.8z M7.5,1.3c1.4,0,1.8,0.8,2.8,3.4
	c0.1,0.2,0.2,0.4,0.2,0.6h-3c-1.1,0-2-0.9-2-2C5.4,2.3,6.3,1.3,7.5,1.3z M8.8,21.7H3.4c-0.4,0-0.7-0.3-0.7-0.7V10.8h6.1V21.7z
	 M8.8,9.4H2c-0.4,0-0.7-0.3-0.7-0.7V7.4C1.3,7,1.6,6.7,2,6.7h6.8V9.4z M12.8,21.7h-2.7V6.7c0.1,0,1.9,0,2.7,0V21.7z M20.3,21
	c0,0.4-0.3,0.7-0.7,0.7h-5.4V10.8h6.1V21z M21.7,8.8c0,0.4-0.3,0.7-0.7,0.7h-6.8V6.7H21c0.4,0,0.7,0.3,0.7,0.7V8.8z"/>
</svg>
