<?xml version="1.0" encoding="utf-8"?>
<!-- Generator: Adobe Illustrator 28.0.0, SVG Export Plug-In . SVG Version: 6.00 Build 0)  -->
<svg version="1.1" id="Capa_1" xmlns="http://www.w3.org/2000/svg" xmlns:xlink="http://www.w3.org/1999/xlink" x="0px" y="0px"
	 viewBox="0 0 23 23" style="enable-background:new 0 0 23 23;" xml:space="preserve">
<style type="text/css">
	.st0{fill:#FFFFFF;}
</style>
<g>
	<path class="st0" d="M4.2,19.4l-0.9,0.1c-0.2,0-0.3,0.2-0.3,0.3c0,0.1,0.1,0.3,0.3,0.3c0,0,0,0,0,0L4.3,20c0.2,0,0.3-0.2,0.3-0.3
		C4.6,19.5,4.4,19.4,4.2,19.4z"/>
	<path class="st0" d="M7.6,19.1l-1.7,0.2c-0.2,0-0.3,0.2-0.3,0.3c0,0.1,0.1,0.3,0.3,0.3c0,0,0,0,0,0l1.7-0.2c0.2,0,0.3-0.2,0.3-0.3
		C8,19.1,7.8,19,7.6,19.1z"/>
	<path class="st0" d="M14.4,18.3l-1.7,0.2c-0.2,0-0.3,0.2-0.3,0.3c0,0.1,0.1,0.3,0.3,0.3c0,0,0,0,0,0l1.7-0.2c0.2,0,0.3-0.2,0.3-0.3
		C14.8,18.4,14.6,18.3,14.4,18.3z"/>
	<path class="st0" d="M11,18.7l-1.7,0.2c-0.2,0-0.3,0.2-0.3,0.3c0,0.1,0.1,0.3,0.3,0.3c0,0,0,0,0,0l1.7-0.2c0.2,0,0.3-0.2,0.3-0.3
		S11.2,18.6,11,18.7z"/>
	<path class="st0" d="M15.9,18.4c0,0.1,0.1,0.3,0.3,0.3c0,0,0,0,0,0l0.9-0.1c0.2,0,0.3-0.2,0.3-0.3c0-0.2-0.2-0.3-0.3-0.3l-0.9,0.1
		C16,18.1,15.9,18.2,15.9,18.4z"/>
	<path class="st0" d="M21.2,17.5L19.1,2.9c0-0.2-0.2-0.3-0.3-0.3L15.8,3c0-0.2-0.1-0.6-0.1-1.8c0-0.3-0.2-0.7-0.4-0.9
		C15,0.1,14.7,0,14.3,0l-4.3,0.4C9.4,0.5,8.8,1.1,8.9,1.8l0,0.5L7.5,2.4C6.8,2.5,6.3,3.1,6.3,3.8l0,0.1c0,0-0.1,0-0.1,0l-2.3,2
		c0,0-0.1,0.1-0.1,0.1C3.4,6.3,3,6.8,3,7.3L1.8,21.3c0,0.5,0.1,1,0.5,1.3C2.6,22.8,3,23,3.5,23c0.1,0,0.1,0,0.2,0L17,21.6
		c0.5,0,0.9-0.3,1.2-0.7c0.3-0.4,0.4-0.8,0.4-1.3L16.6,6c0-0.3-0.2-0.7-0.4-0.9l2.4-1.7l2,14.1c0.1,0.4-0.1,0.8-0.4,1.1l-0.6,0.5
		c-0.1,0.1-0.1,0.3,0,0.4c0.1,0.1,0.1,0.1,0.2,0.1c0.1,0,0.2,0,0.2-0.1l0.6-0.5C21,18.7,21.2,18,21.2,17.5z M10.1,1l4.3-0.4
		c0.2,0,0.3,0,0.5,0.1C15,0.9,15.1,1,15.1,1.2c0,1,0.1,1.6,0.1,1.9l-2,0.2c0,0,0-0.1,0-0.1c0-0.3-0.2-0.7-0.4-0.9
		C12.5,2.1,12.2,2,11.8,2L9.5,2.2l0-0.4C9.5,1.4,9.8,1.1,10.1,1z M7.6,3l4.3-0.4c0.2,0,0.4,0,0.5,0.1c0.1,0.1,0.2,0.3,0.2,0.4
		c0,0.9,0.1,1.4,0.1,1.7L7,5.5L6.9,3.8C6.9,3.4,7.2,3.1,7.6,3z M6.4,4.6l0.1,1L5.1,5.7L6.4,4.6z M17.9,19.7c0,0.3,0,0.6-0.2,0.9
		c-0.2,0.2-0.5,0.4-0.8,0.4L3.6,22.4c-0.3,0-0.6-0.1-0.8-0.3c-0.2-0.2-0.3-0.5-0.3-0.8L3.6,7.4c0-0.5,0.5-1,1.1-1.1l10.2-1
		c0.6-0.1,1.1,0.3,1.1,0.9L17.9,19.7z M15.7,4.8C15.7,4.8,15.7,4.8,15.7,4.8c-0.3-0.1-0.6-0.1-0.9-0.1l-1.6,0.2c0-0.2,0-0.5-0.1-1
		l4.4-0.5L15.7,4.8z"/>
	<path class="st0" d="M14.3,11.3l-0.7,0.1c-0.1,0-0.1,0.1-0.2,0.2l-0.1,1.3c0,0.1,0,0.1-0.1,0l-0.4-1.2c0-0.1-0.1-0.1-0.2-0.1
		l-0.7,0.1c-0.1,0-0.2,0.1-0.2,0.2L11.5,15c0,0.1,0.1,0.2,0.2,0.2l0.6-0.1c0.1,0,0.2-0.1,0.2-0.2l0.1-2.2c0-0.1,0-0.1,0.1,0l0.6,2.1
		c0,0.1,0.1,0.1,0.2,0.1l0.4,0c0.1,0,0.2-0.1,0.2-0.2l0.1-2.2c0-0.1,0-0.1,0.1,0l0.5,2.1c0,0.1,0.1,0.1,0.2,0.1l0.6-0.1
		c0.1,0,0.2-0.1,0.1-0.2l-1-3.2C14.5,11.3,14.4,11.3,14.3,11.3z"/>
	<path class="st0" d="M8.1,12L7.5,12c-0.1,0-0.2,0.1-0.2,0.2l-0.1,2.2c0,0.1,0,0.1-0.1,0l-0.6-2.1c0-0.1-0.1-0.1-0.2-0.1l-0.4,0
		c-0.1,0-0.2,0.1-0.2,0.2l-0.1,2.2c0,0.1,0,0.1-0.1,0l-0.5-2.1c0-0.1-0.1-0.1-0.2-0.1l-0.6,0.1c-0.1,0-0.2,0.1-0.1,0.2l1,3.2
		c0,0.1,0.1,0.1,0.2,0.1l0.7-0.1c0.1,0,0.1-0.1,0.2-0.2l0.1-1.3c0-0.1,0-0.1,0.1,0l0.4,1.2c0,0.1,0.1,0.1,0.2,0.1l0.7-0.1
		c0.1,0,0.2-0.1,0.2-0.2l0.3-3.3C8.3,12,8.2,12,8.1,12z"/>
	<path class="st0" d="M9.7,15.4c1.2-0.1,1.4-1,1.4-1.4l0.1-1.3c0-0.3,0-1.2-1.2-1.1c-1.2,0.1-1.4,1-1.4,1.4l-0.1,1.3
		C8.5,14.7,8.5,15.6,9.7,15.4z M9.4,14l0.1-0.7c0-0.4,0.1-0.6,0.5-0.7c0.4,0,0.4,0.2,0.4,0.6l-0.1,0.7c0,0.4-0.1,0.6-0.5,0.7
		C9.4,14.6,9.4,14.4,9.4,14z"/>
</g>
</svg>
