<?xml version="1.0" encoding="utf-8"?>
<!-- Generator: Adobe Illustrator 28.0.0, SVG Export Plug-In . SVG Version: 6.00 Build 0)  -->
<svg version="1.1" id="Capa_1" xmlns="http://www.w3.org/2000/svg" xmlns:xlink="http://www.w3.org/1999/xlink" x="0px" y="0px"
	 viewBox="0 0 23 23" style="enable-background:new 0 0 23 23;" xml:space="preserve">
<style type="text/css">
	.st0{fill:#FFFFFF;}
</style>
<g>
	<path class="st0" d="M13.6,1.9h-2.3c-0.3,0-0.6,0.3-0.6,0.6c0,0.3,0.3,0.6,0.6,0.6h2.3c0.3,0,0.6-0.3,0.6-0.6
		C14.2,2.2,13.9,1.9,13.6,1.9z"/>
	<path class="st0" d="M16.1,0H6.9C5.6,0,4.6,1,4.6,2.3v18.4c0,1.3,1,2.3,2.3,2.3h9.2c1.3,0,2.3-1,2.3-2.3V2.3C18.4,1,17.4,0,16.1,0z
		 M17.3,20.7c0,0.6-0.5,1.2-1.2,1.2H6.9c-0.6,0-1.2-0.5-1.2-1.2V2.3c0-0.6,0.5-1.2,1.2-1.2h9.2c0.6,0,1.2,0.5,1.2,1.2V20.7z"/>
	<path class="st0" d="M11.5,18.8c-0.6,0-1.1,0.5-1.1,1.1c0,0.6,0.5,1.2,1.1,1.2c0.6,0,1.2-0.5,1.2-1.2
		C12.7,19.3,12.1,18.8,11.5,18.8z"/>
	<path class="st0" d="M9.4,1.9c-0.3,0-0.6,0.3-0.6,0.6c0,0.3,0.3,0.6,0.6,0.6c0.3,0,0.6-0.3,0.6-0.6C10,2.2,9.7,1.9,9.4,1.9z"/>
</g>
</svg>
