<?xml version="1.0" encoding="utf-8"?>
<!-- Generator: Adobe Illustrator 28.0.0, SVG Export Plug-In . SVG Version: 6.00 Build 0)  -->
<svg version="1.1" id="Capa_1" xmlns="http://www.w3.org/2000/svg" xmlns:xlink="http://www.w3.org/1999/xlink" x="0px" y="0px"
	 viewBox="0 0 23 23" style="enable-background:new 0 0 23 23;" xml:space="preserve">
<style type="text/css">
	.st0{fill:#FFFFFF;}
</style>
<g>
	<path class="st0" d="M11.5,16.5c-0.7,0-1.2,0.5-1.2,1.2c0,0.6,0.5,1.2,1.2,1.2c0.7,0,1.2-0.6,1.2-1.2C12.7,17,12.1,16.5,11.5,16.5z
		"/>
	<path class="st0" d="M11.7,7.3c-2.1,0-3.1,1.3-3.1,2.1c0,0.6,0.5,0.9,0.9,0.9c0.8,0,0.5-1.2,2.1-1.2c0.8,0,1.4,0.3,1.4,1.1
		c0,0.8-0.9,1.3-1.4,1.8c-0.5,0.4-1,1-1,2.4c0,0.8,0.2,1,0.9,1c0.8,0,0.9-0.3,0.9-0.6c0-0.8,0-1.3,0.9-2c0.4-0.3,1.8-1.4,1.8-2.9
		C15,8.4,13.7,7.3,11.7,7.3z"/>
	<path class="st0" d="M11.5,0C5.1,0,0,5.1,0,11.5v10.6C0,22.6,0.4,23,0.9,23h10.6C17.9,23,23,17.9,23,11.5C23,5.1,17.9,0,11.5,0z
		 M11.5,21.2H1.8v-9.7c0-5.4,4.3-9.7,9.7-9.7c5.4,0,9.7,4.3,9.7,9.7C21.2,16.9,16.9,21.2,11.5,21.2z"/>
</g>
</svg>
