<?xml version="1.0" encoding="utf-8"?>
<!-- Generator: Adobe Illustrator 28.0.0, SVG Export Plug-In . SVG Version: 6.00 Build 0)  -->
<svg version="1.1" id="Capa_1" xmlns="http://www.w3.org/2000/svg" xmlns:xlink="http://www.w3.org/1999/xlink" x="0px" y="0px"
	 viewBox="0 0 23 23" style="enable-background:new 0 0 23 23;" xml:space="preserve">
<style type="text/css">
	.st0{fill:#FFFFFF;}
</style>
<path class="st0" d="M21.2,19.7L20,9c-0.2-1.5-1.4-2.6-2.9-2.6h-0.6V5c0-2.8-2.2-5-5-5s-5,2.2-5,5v1.4H5.9C4.4,6.4,3.2,7.5,3,9
	L1.8,19.7C1.8,20.6,2,21.4,2.6,22c0.6,0.6,1.4,1,2.2,1h13.5c0.8,0,1.6-0.4,2.2-1C21,21.4,21.2,20.6,21.2,19.7z M7.4,5
	c0-2.3,1.8-4.1,4.1-4.1c2.3,0,4.1,1.8,4.1,4.1v1.4H7.4V5z M19.7,21.4c-0.4,0.4-0.9,0.7-1.5,0.7H4.8c-0.6,0-1.1-0.2-1.5-0.7
	c-0.4-0.4-0.6-1-0.5-1.6L3.9,9.1c0.1-1,1-1.8,2-1.8h0.6v1.6c-0.7,0.2-1.2,0.9-1.2,1.6c0,0.9,0.8,1.7,1.7,1.7c0.9,0,1.7-0.8,1.7-1.7
	c0-0.8-0.5-1.4-1.2-1.6V7.3h8.2v1.6c-0.7,0.2-1.2,0.9-1.2,1.6c0,0.9,0.8,1.7,1.7,1.7c0.9,0,1.7-0.8,1.7-1.7c0-0.8-0.5-1.4-1.2-1.6
	V7.3h0.6c1,0,1.9,0.8,2,1.8l1.1,10.7C20.3,20.4,20.1,21,19.7,21.4z M7,9.7c0.4,0,0.8,0.4,0.8,0.8c0,0.4-0.4,0.8-0.8,0.8
	c-0.4,0-0.8-0.4-0.8-0.8C6.2,10.1,6.5,9.7,7,9.7z M16,9.7c0.4,0,0.8,0.4,0.8,0.8c0,0.4-0.4,0.8-0.8,0.8c-0.4,0-0.8-0.4-0.8-0.8
	C15.3,10.1,15.6,9.7,16,9.7z"/>
</svg>
