<?xml version="1.0" encoding="utf-8"?>
<!-- Generator: Adobe Illustrator 28.0.0, SVG Export Plug-In . SVG Version: 6.00 Build 0)  -->
<svg version="1.1" id="Capa_1" xmlns="http://www.w3.org/2000/svg" xmlns:xlink="http://www.w3.org/1999/xlink" x="0px" y="0px"
	 viewBox="0 0 23 23" style="enable-background:new 0 0 23 23;" xml:space="preserve">
<style type="text/css">
	.st0{fill:#FFFFFF;}
</style>
<g>
	<path class="st0" d="M16.3,18.6c0.1-0.1,0.1-0.2,0.1-0.3c0-0.1-0.1-0.2-0.2-0.3c-0.1-0.1-0.2-0.1-0.3-0.1L6,19.2
		c-0.1,0-0.2,0.1-0.3,0.2c-0.1,0.1-0.1,0.2-0.1,0.3C5.7,19.8,5.8,20,6,20l10-1.2C16.1,18.7,16.2,18.6,16.3,18.6z"/>
	<path class="st0" d="M10.7,20.2c-0.1,0.1-0.1,0.2-0.1,0.3c0,0.2,0.1,0.4,0.4,0.4c0.1,0,0.2,0,0.3-0.1c0.1-0.1,0.1-0.2,0.1-0.3
		c0-0.2-0.1-0.4-0.4-0.4C10.9,20,10.8,20.1,10.7,20.2z"/>
	<path class="st0" d="M19,12c-0.1,0-0.2,0.1-0.2,0.2c0,0.1-0.1,0.2,0,0.3c0,0,0.3,1-0.3,1.8c-0.5,0.8-1.6,1.2-3.2,1.4l0.1-0.1
		c0.1-0.1,0.1-0.2,0.1-0.3c0-0.1,0-0.2-0.1-0.3c-0.1-0.2-0.4-0.2-0.6,0l-1,0.9c-0.1,0.1-0.1,0.2-0.1,0.3c0,0.1,0,0.2,0.1,0.3l0.9,1
		c0.1,0.1,0.2,0.1,0.3,0.1c0.1,0,0.2,0,0.3-0.1c0.1-0.1,0.1-0.2,0.1-0.3c0-0.1,0-0.2-0.1-0.3l-0.3-0.3c0.6,0,1.2-0.1,1.7-0.3
		l0.2,3.6c0,0.6-0.4,1.1-1,1.2l-9.8,1.2c-0.3,0-0.5-0.1-0.8-0.2c-0.2-0.2-0.3-0.4-0.3-0.7l-1-18.1c0-0.6,0.4-1.1,1-1.2L15,0.8
		c0.3,0,0.5,0.1,0.8,0.2c0.2,0.2,0.3,0.4,0.3,0.7l0.1,2c0,0.2,0.2,0.4,0.4,0.4c0.1,0,0.2-0.1,0.3-0.1C16.9,3.9,17,3.8,17,3.7l-0.1-2
		c0-0.5-0.2-0.9-0.6-1.3C15.9,0.1,15.4,0,14.9,0L5.1,1.2c-1,0.1-1.8,1-1.8,2l1,18.1c0,0.5,0.2,0.9,0.6,1.3C5.3,22.9,5.7,23,6.1,23
		c0.1,0,0.1,0,0.2,0l9.8-1.2c1-0.1,1.8-1,1.8-2L17.6,16c0.7-0.3,1.2-0.7,1.6-1.2c0.8-1.2,0.4-2.4,0.4-2.6C19.4,12,19.2,11.9,19,12z"
		/>
	<path class="st0" d="M13.7,9.5l1.3,0.2c0.1,0,0.2,0.1,0.2,0.2l0,0.1c0,0.1-0.1,0.4-0.4,0.4l-0.4,0c0,0,0,0,0,0c0,0,0,0,0,0l-0.4,0
		c-0.1,0-0.2,0-0.2-0.1c-0.1-0.1-0.1-0.1-0.1-0.2l0-0.4c0-0.2-0.2-0.4-0.4-0.4c0,0,0,0,0,0c-0.1,0-0.2,0.1-0.3,0.1
		c-0.1,0.1-0.1,0.2-0.1,0.3l0,0.4c0,0.3,0.2,0.6,0.4,0.8c0.2,0.2,0.5,0.3,0.7,0.3c0,0,0,0,0.1,0l0,0.7c0,0.2,0.2,0.4,0.4,0.4l0,0
		c0.2,0,0.4-0.2,0.4-0.4l0-0.7l0,0c0.6-0.1,1.1-0.6,1.1-1.3l0-0.1c0-0.5-0.4-0.9-0.9-1l-1.3-0.2c-0.1,0-0.2-0.1-0.2-0.2l0-0.1
		c0-0.1,0.1-0.4,0.4-0.4l0.8-0.1c0.1,0,0.2,0,0.2,0.1C15,8,15.1,8.1,15.1,8.2l0,0.4c0,0.2,0.2,0.4,0.4,0.4c0.1,0,0.2-0.1,0.3-0.1
		c0.1-0.1,0.1-0.2,0.1-0.3l0-0.4c0-0.3-0.2-0.6-0.4-0.8c-0.2-0.2-0.5-0.3-0.8-0.3l0-0.7c0-0.1-0.1-0.2-0.1-0.3C14.4,6,14.3,6,14.2,6
		c-0.1,0-0.2,0.1-0.3,0.1c-0.1,0.1-0.1,0.2-0.1,0.3l0,0.8c-0.6,0.1-1.1,0.6-1.1,1.3l0,0.1C12.8,9,13.2,9.4,13.7,9.5z"/>
	<path class="st0" d="M9.1,9.2c0,2.9,2.4,5.2,5.3,5.2c2.9,0,5.3-2.3,5.3-5.2c0-2.9-2.4-5.2-5.3-5.2C11.4,4,9.1,6.4,9.1,9.2z
		 M9.9,9.2c0-2.4,2-4.4,4.5-4.4c2.5,0,4.5,2,4.5,4.4s-2,4.4-4.5,4.4C11.9,13.6,9.9,11.7,9.9,9.2z"/>
</g>
</svg>
