<?xml version="1.0" encoding="utf-8"?>
<!-- Generator: Adobe Illustrator 28.0.0, SVG Export Plug-In . SVG Version: 6.00 Build 0)  -->
<svg version="1.1" id="Capa_1" xmlns="http://www.w3.org/2000/svg" xmlns:xlink="http://www.w3.org/1999/xlink" x="0px" y="0px"
	 viewBox="0 0 23 23" style="enable-background:new 0 0 23 23;" xml:space="preserve">
<style type="text/css">
	.st0{fill:#FFFFFF;}
</style>
<path class="st0" d="M20.9,4.8c0.2-0.3,0.3-0.7,0.3-1.1c0-1.1-0.9-2-2-2c-0.4,0-0.8,0.1-1.1,0.3C16.2,0.7,13.9,0,11.5,0
	C9.1,0,6.8,0.7,4.9,2.1C4.6,2.3,4.6,2.6,4.7,2.8C4.9,3.1,5.2,3.1,5.5,3c1.2-0.9,2.6-1.4,4.1-1.7c-0.7,1-1.3,2.6-1.7,4.7
	C7,6,6.4,6.6,6.1,7.3H1.9c0.2-0.6,0.5-1.1,0.9-1.6C3,5.4,2.9,5.1,2.7,4.9C2.4,4.8,2.1,4.9,1.9,5.1C0.7,7,0,9.2,0,11.5
	c0,2.4,0.7,4.7,2.1,6.7c-0.2,0.3-0.3,0.7-0.3,1.1c0,1.1,0.9,2,2,2c0.4,0,0.8-0.1,1.1-0.3c2,1.4,4.2,2.1,6.7,2.1
	C17.8,23,23,17.8,23,11.5C23,9.1,22.3,6.8,20.9,4.8z M16.8,14.6c-0.2-0.6-0.6-1.1-1.2-1.3c0-0.6,0.1-1.2,0.1-1.8
	c0-1-0.1-2.1-0.2-3.1h5.9c0.3,1,0.5,2.1,0.5,3.1c0,1.1-0.2,2.1-0.5,3.1H16.8z M11.5,21.9c-1.1,0-2.3-2.5-2.8-6.3h4.4
	c0.2,0.6,0.5,1,1.1,1.2C13.5,20.4,12.3,21.9,11.5,21.9z M3.7,17.3c-0.3,0-0.6,0.1-0.8,0.2c-0.4-0.6-0.7-1.2-1-1.8h5.7
	c0.3,2.5,1,4.8,1.9,6.1c-1.4-0.3-2.8-0.8-4-1.7c0.1-0.2,0.2-0.5,0.2-0.8C5.7,18.2,4.8,17.3,3.7,17.3z M8.4,11.5c0-0.6,0-1.2,0.1-1.7
	c0.7-0.2,1.3-0.7,1.5-1.4h4.6c0.1,1,0.2,2,0.2,3.1c0,0.6,0,1.2-0.1,1.7c-0.7,0.1-1.3,0.7-1.5,1.4H8.5C8.4,13.6,8.4,12.6,8.4,11.5z
	 M19.3,5.7c0.3,0,0.6-0.1,0.8-0.2c0.4,0.6,0.7,1.2,1,1.8h-5.7c-0.3-2.5-1-4.8-1.9-6.1c1.4,0.3,2.8,0.8,4,1.7
	c-0.1,0.2-0.2,0.5-0.2,0.8C17.3,4.8,18.2,5.7,19.3,5.7z M14.3,7.3H9.9c-0.2-0.5-0.5-1-1-1.2c0.7-3.4,1.8-5,2.6-5
	C12.6,1.1,13.8,3.6,14.3,7.3z M14.9,16.1c-0.5,0-0.9-0.4-0.9-0.9c0-0.5,0.4-0.9,0.9-0.9c0.5,0,0.9,0.4,0.9,0.9
	C15.8,15.7,15.4,16.1,14.9,16.1z M20.2,3.7c0,0.5-0.4,0.9-0.9,0.9c-0.5,0-0.9-0.4-0.9-0.9s0.4-0.9,0.9-0.9
	C19.8,2.8,20.2,3.2,20.2,3.7z M8,6.9c0.5,0,0.9,0.4,0.9,0.9S8.5,8.7,8,8.7S7.1,8.3,7.1,7.8S7.5,6.9,8,6.9z M6.1,8.4
	C6.3,9,6.8,9.5,7.4,9.7c0,0.6-0.1,1.2-0.1,1.8c0,1,0.1,2.1,0.2,3.1H1.5c-0.3-1-0.5-2.1-0.5-3.1c0-1.1,0.2-2.1,0.5-3.1H6.1z
	 M2.8,19.3c0-0.5,0.4-0.9,0.9-0.9s0.9,0.4,0.9,0.9c0,0.5-0.4,0.9-0.9,0.9S2.8,19.8,2.8,19.3z M13.4,21.8c0.7-1,1.3-2.6,1.7-4.7
	c0.8-0.1,1.4-0.7,1.6-1.4h4.2C19.7,18.8,16.9,21.1,13.4,21.8z"/>
</svg>
