<?xml version="1.0" encoding="utf-8"?>
<!-- Generator: Adobe Illustrator 28.0.0, SVG Export Plug-In . SVG Version: 6.00 Build 0)  -->
<svg version="1.1" id="Capa_1" xmlns="http://www.w3.org/2000/svg" xmlns:xlink="http://www.w3.org/1999/xlink" x="0px" y="0px"
	 viewBox="0 0 23 23" style="enable-background:new 0 0 23 23;" xml:space="preserve">
<style type="text/css">
	.st0{fill:#FFFFFF;}
</style>
<g>
	<path class="st0" d="M16.8,18.6c0-0.2-0.2-0.4-0.4-0.3l-8.5,1.2c-0.2,0-0.4,0.2-0.3,0.4c0,0.2,0.2,0.3,0.4,0.3c0,0,0,0,0.1,0
		l8.5-1.2C16.7,19,16.8,18.8,16.8,18.6z"/>
	<path class="st0" d="M11.7,20.1c-0.1,0.1-0.2,0.3-0.2,0.5c0,0.4,0.3,0.7,0.7,0.7c0.2,0,0.4-0.1,0.5-0.2c0.1-0.1,0.2-0.3,0.2-0.5
		c0-0.4-0.3-0.7-0.7-0.7C12,19.9,11.8,20,11.7,20.1z"/>
	<path class="st0" d="M8.8,17.8c0.2,0,0.4,0,0.6-0.1c0.5-0.1,1-0.3,1.4-0.6c0.4-0.3,0.7-0.6,0.9-0.9c0.3-0.3,0.4-0.8,0.2-1.2
		c-0.1-0.2-0.2-0.3-0.3-0.5c-0.3-0.3-0.6-0.6-0.9-0.9c-0.2-0.2-0.5-0.4-0.8-0.5C9.5,13,9.1,13,8.7,13.3c-0.2,0.1-0.4,0.3-0.6,0.5
		L8,14c-0.1,0.1-0.1,0.1-0.2,0.2c-0.1,0-0.2,0.1-0.5-0.1c-0.2-0.1-0.4-0.3-0.7-0.5c-0.5-0.6-1-1.1-1.3-1.6C5.2,11.7,5,11.4,5,11.1
		c0-0.2,0-0.3,0.2-0.4l0.3-0.3c0.1-0.1,0.2-0.2,0.3-0.3C6,10,6.1,9.8,6.2,9.6c0.2-0.5,0.1-0.9,0-1.2C6.1,8,5.9,7.7,5.7,7.4
		C5.5,7.2,5.4,6.9,5.2,6.7C5.1,6.5,5,6.4,4.8,6.3C4.4,6.1,4,6.1,3.6,6.4C3.5,6.5,3.4,6.5,3.3,6.6C3.3,6.7,3.2,6.8,3.1,6.8
		C2.8,7.1,2.5,7.5,2.2,7.9c-0.3,0.6-0.5,1.2-0.5,2c0,0,0,0,0,0c0,0,0,0,0,0.1h0c0,0.6,0.1,1.2,0.3,1.8c0.2,0.6,0.5,1.1,0.8,1.7
		c0.3,0.4,0.6,0.8,0.9,1.3c0.6,0.7,1.2,1.4,1.8,1.9c0.6,0.5,1.1,0.8,1.6,1C7.8,17.7,8.3,17.8,8.8,17.8z M4.4,14.1
		c-0.3-0.4-0.6-0.8-0.9-1.2c-0.3-0.5-0.5-1-0.7-1.5c-0.2-0.5-0.3-1-0.3-1.6l-0.4,0l0.4,0c0-0.6,0.1-1.1,0.4-1.6
		c0.2-0.3,0.4-0.6,0.7-0.8c0.1-0.1,0.2-0.2,0.3-0.2C3.9,7.1,4,7.1,4.1,7c0.1-0.1,0.2-0.1,0.4,0C4.5,7,4.5,7.1,4.5,7.1
		C4.7,7.3,4.9,7.6,5,7.8c0.2,0.3,0.3,0.5,0.4,0.8c0.1,0.3,0.1,0.5,0,0.6c0,0.1-0.1,0.2-0.2,0.3l-0.6,0.5c-0.3,0.3-0.4,0.6-0.4,1
		c0,0.5,0.2,0.9,0.4,1.2c0.4,0.6,0.8,1.2,1.4,1.8c0.3,0.3,0.6,0.5,0.9,0.7c0.3,0.1,0.7,0.3,1.1,0.1c0.2-0.1,0.3-0.2,0.5-0.4l0.2-0.2
		c0.2-0.2,0.3-0.3,0.5-0.4c0.1-0.1,0.2-0.1,0.5,0c0.2,0.1,0.4,0.2,0.5,0.4c0.3,0.3,0.6,0.6,0.9,0.8c0.1,0.1,0.1,0.2,0.2,0.3
		c0,0.1,0.1,0.2-0.1,0.3c-0.2,0.2-0.5,0.5-0.9,0.8c-0.3,0.2-0.6,0.4-1,0.4c-0.6,0.1-1.2,0-1.7-0.2c-0.5-0.2-0.9-0.5-1.5-0.9
		C5.5,15.4,5,14.8,4.4,14.1z"/>
	<path class="st0" d="M21,1.7c0-0.5-0.2-1-0.6-1.3C20.1,0.1,19.6,0,19.1,0l-7.2,0.8c-0.8,0.1-1.5,0.7-1.6,1.6L7.1,2.8
		C6.2,2.9,5.5,3.7,5.6,4.7l0.1,1.7c0,0.2,0.2,0.4,0.4,0.4c0,0,0,0,0,0c0.2,0,0.4-0.2,0.4-0.4L6.4,4.6c0-0.5,0.4-1,0.9-1.1l3-0.4
		l0.2,5.2c0,0.5,0.2,1,0.6,1.3c0.3,0.3,0.7,0.4,1.1,0.4c0.1,0,0.1,0,0.2,0l4.1-0.5L17.3,20c0,0.5-0.4,1-0.9,1.1l-8.3,1.1
		c-0.2,0-0.4,0-0.6-0.2c-0.2-0.2-0.3-0.4-0.3-0.6l-0.1-3c0-0.2-0.2-0.4-0.4-0.4c0,0,0,0,0,0c-0.2,0-0.4,0.2-0.4,0.4l0.1,3
		c0,0.5,0.2,0.9,0.6,1.2C7.3,22.9,7.6,23,8,23c0.1,0,0.1,0,0.2,0l8.3-1.1c0.9-0.1,1.6-0.9,1.5-1.9L17.2,9.6l2.4-0.3
		c1-0.1,1.7-1,1.7-2.1L21,1.7z M19.5,8.5l-7.2,0.8c-0.3,0-0.5,0-0.7-0.2c-0.2-0.2-0.3-0.5-0.4-0.8L11,2.8c0-0.6,0.4-1.2,1-1.3
		l7.2-0.8c0,0,0.1,0,0.1,0c0.2,0,0.4,0.1,0.6,0.2c0.2,0.2,0.3,0.5,0.4,0.8l0.2,5.5C20.5,7.9,20,8.5,19.5,8.5z"/>
	<path class="st0" d="M17.9,5.7l0.2-0.3c0.4-0.6,0.7-1,0.6-1.5c-0.1-0.7-0.6-1.1-1.3-1.1c-0.7,0-1.2,0.7-1.2,1.3
		c0,0.1,0,0.2,0.1,0.3l0.9-0.1c0-0.1,0-0.2,0-0.2c0-0.3,0.1-0.4,0.3-0.5c0.2,0,0.4,0.1,0.4,0.4c0,0.2-0.1,0.5-0.3,0.8l-1.1,1.5
		l0,0.2L19,6.4l-0.1-0.8L17.9,5.7z"/>
	<polygon class="st0" points="15.7,3.1 14.7,3.2 14.2,4.2 13.6,3.3 12.6,3.4 13.8,5.1 12.9,7 13.8,6.9 14.4,5.8 15,6.8 16,6.7 
		14.8,5 	"/>
</g>
</svg>
