<?xml version="1.0" encoding="utf-8"?>
<!-- Generator: Adobe Illustrator 28.0.0, SVG Export Plug-In . SVG Version: 6.00 Build 0)  -->
<svg version="1.1" id="Capa_1" xmlns="http://www.w3.org/2000/svg" xmlns:xlink="http://www.w3.org/1999/xlink" x="0px" y="0px"
	 viewBox="0 0 23 23" style="enable-background:new 0 0 23 23;" xml:space="preserve">
<style type="text/css">
	.st0{fill:none;}
	.st1{fill:#5A2583;}
</style>
<rect class="st0" width="22.8" height="22.2"/>
<path class="st1" d="M16.7,17.6v1.8c0,2-1.7,3.6-3.7,3.6H3.7c-2,0-3.7-1.6-3.7-3.6V3.6C0,1.6,1.7,0,3.7,0H13c2,0,3.7,1.6,3.7,3.6
	v1.8c0,0.5-0.4,0.9-0.9,0.9c-0.5,0-0.9-0.4-0.9-0.9V3.6c0-1-0.8-1.8-1.8-1.8H3.7c-1,0-1.8,0.8-1.8,1.8v15.8c0,1,0.8,1.8,1.8,1.8H13
	c1,0,1.8-0.8,1.8-1.8v-1.8c0-0.5,0.4-0.9,0.9-0.9C16.3,16.7,16.7,17.1,16.7,17.6z"/>
<path class="st1" d="M22.3,10l-2-1.9c-0.3-0.3-0.9-0.3-1.3,0c-0.3,0.3-0.3,0.9,0,1.2l1.4,1.4H9.8c-0.5,0-0.9,0.4-0.9,0.9
	c0,0.5,0.4,0.9,0.9,0.9h10.7l-1.4,1.4c-0.3,0.3-0.3,0.9,0,1.2c0.2,0.2,0.4,0.3,0.6,0.3c0.2,0,0.5-0.1,0.6-0.3l2-1.9
	C23.2,12.2,23.2,10.8,22.3,10z"/>
</svg>
