<?xml version="1.0" encoding="utf-8"?>
<!-- Generator: Adobe Illustrator 28.0.0, SVG Export Plug-In . SVG Version: 6.00 Build 0)  -->
<svg version="1.1" id="Capa_1" xmlns="http://www.w3.org/2000/svg" xmlns:xlink="http://www.w3.org/1999/xlink" x="0px" y="0px"
	 viewBox="0 0 24 24" style="enable-background:new 0 0 24 24;" xml:space="preserve">
<style type="text/css">
	.st0{fill:#A47AB5;}
</style>
<path class="st0" d="M18,12c-1.8,0-3.4,0.8-4.5,2.1l-3.8-2.3C9.9,11.2,10,10.6,10,10c0-0.4-0.1-0.8-0.1-1.1l5.1-2.3
	C15.7,7.4,16.8,8,18,8c2.2,0,4-1.8,4-4s-1.8-4-4-4c-2.2,0-4,1.8-4,4c0,0.2,0,0.5,0.1,0.7L9,7C8.1,5.8,6.7,5,5,5c-2.8,0-5,2.2-5,5
	c0,2.8,2.2,5,5,5c1.4,0,2.7-0.6,3.6-1.6l3.8,2.3C12.2,16.4,12,17.2,12,18c0,3.3,2.7,6,6,6c3.3,0,6-2.7,6-6S21.3,12,18,12z M18,2
	c1.1,0,2,0.9,2,2c0,1.1-0.9,2-2,2s-2-0.9-2-2C16,2.9,16.9,2,18,2z M5,13c-1.7,0-3-1.3-3-3c0-1.7,1.3-3,3-3c1.7,0,3,1.3,3,3
	C8,11.7,6.7,13,5,13z M18,22c-2.2,0-4-1.8-4-4s1.8-4,4-4s4,1.8,4,4S20.2,22,18,22z"/>
</svg>
