<?xml version="1.0" encoding="utf-8"?>
<!-- Generator: Adobe Illustrator 28.0.0, SVG Export Plug-In . SVG Version: 6.00 Build 0)  -->
<svg version="1.1" id="Capa_1" xmlns="http://www.w3.org/2000/svg" xmlns:xlink="http://www.w3.org/1999/xlink" x="0px" y="0px"
	 viewBox="0 0 24 24" style="enable-background:new 0 0 24 24;" xml:space="preserve">
<style type="text/css">
	.st0{fill:#A47AB5;}
</style>
<path class="st0" d="M12,0C5.4,0,0,5.4,0,12c0,6.6,5.4,12,12,12c6.6,0,12-5.4,12-12C24,5.4,18.6,0,12,0z M7.6,17H4.3v-1.9h3.3V17z
	 M11.7,17H8.3v-1.9h3.3V17z M11.7,14.3H8.3v-1.9h3.3V14.3z M11.7,11.6H8.3V9.7h3.3V11.6z M15.7,17h-3.3v-1.9h3.3V17z M15.7,14.3
	h-3.3v-1.9h3.3V14.3z M19.7,17h-3.3v-1.9h3.3V17z M19.7,14.3h-3.3v-1.9h3.3V14.3z M19.7,11.6h-3.3V9.7h3.3V11.6z M19.7,8.9h-3.3V7
	h3.3V8.9z"/>
</svg>
