<?xml version="1.0" encoding="utf-8"?>
<!-- Generator: Adobe Illustrator 28.0.0, SVG Export Plug-In . SVG Version: 6.00 Build 0)  -->
<svg version="1.1" id="Capa_1" xmlns="http://www.w3.org/2000/svg" xmlns:xlink="http://www.w3.org/1999/xlink" x="0px" y="0px"
	 viewBox="0 0 24 24" style="enable-background:new 0 0 24 24;" xml:space="preserve">
<style type="text/css">
	.st0{fill:#A47AB5;}
</style>
<path class="st0" d="M3.5,24h7.8v-8.5H8.5v-2.8h2.8V9.1c0-1.9,1.6-3.5,3.5-3.5h3.5v2.8h-2.8c-0.8,0-1.4,0.6-1.4,1.4v2.8h4.1
	l-0.5,2.8h-3.6V24h6.3c1.9,0,3.5-1.6,3.5-3.5v-17C24,1.6,22.4,0,20.5,0h-17C1.6,0,0,1.6,0,3.5v17C0,22.4,1.6,24,3.5,24z M1.4,3.5
	c0-1.2,0.9-2.1,2.1-2.1h17c1.2,0,2.1,0.9,2.1,2.1v17c0,1.2-0.9,2.1-2.1,2.1h-4.9v-5.7H19l0.9-5.6h-4.3V9.8h4.2V4.2h-4.9
	c-2.7,0-4.9,2.2-4.9,4.9v2.1H7.1v5.6h2.8v5.7H3.5c-1.2,0-2.1-0.9-2.1-2.1V3.5z"/>
</svg>
