<?xml version="1.0" encoding="utf-8"?>
<!-- Generator: Adobe Illustrator 28.0.0, SVG Export Plug-In . SVG Version: 6.00 Build 0)  -->
<svg version="1.1" id="Capa_1" xmlns="http://www.w3.org/2000/svg" xmlns:xlink="http://www.w3.org/1999/xlink" x="0px" y="0px"
	 viewBox="0 0 24 24" style="enable-background:new 0 0 24 24;" xml:space="preserve">
<style type="text/css">
	.st0{fill:#A47AB5;}
</style>
<path class="st0" d="M18,0H6C2.7,0,0,2.7,0,6v12c0,3.3,2.7,6,6,6h12c3.3,0,6-2.7,6-6V6C24,2.7,21.3,0,18,0z M22,18c0,2.2-1.8,4-4,4
	H6c-2.2,0-4-1.8-4-4V6c0-2.2,1.8-4,4-4h12c2.2,0,4,1.8,4,4V18z"/>
<path class="st0" d="M18.5,7C19.3,7,20,6.3,20,5.5C20,4.7,19.3,4,18.5,4C17.7,4,17,4.7,17,5.5C17,6.3,17.7,7,18.5,7z"/>
<path class="st0" d="M12,6c-3.3,0-6,2.7-6,6c0,3.3,2.7,6,6,6c3.3,0,6-2.7,6-6C18,8.7,15.3,6,12,6z M12,16c-2.2,0-4-1.8-4-4
	c0-2.2,1.8-4,4-4c2.2,0,4,1.8,4,4C16,14.2,14.2,16,12,16z"/>
</svg>
