<?xml version="1.0" encoding="utf-8"?>
<!-- Generator: Adobe Illustrator 28.0.0, SVG Export Plug-In . SVG Version: 6.00 Build 0)  -->
<svg version="1.1" id="Capa_1" xmlns="http://www.w3.org/2000/svg" xmlns:xlink="http://www.w3.org/1999/xlink" x="0px" y="0px"
	 viewBox="0 0 24 24" style="enable-background:new 0 0 24 24;" xml:space="preserve">
<style type="text/css">
	.st0{fill:#A47AB5;}
</style>
<path class="st0" d="M12,24c6.6,0,12-5.4,12-12c0-6.6-5.4-12-12-12C5.4,0,0,5.4,0,12C0,18.6,5.4,24,12,24z M15.6,22
	c0.7-0.9,1.2-1.9,1.6-2.9h2.8C18.7,20.3,17.3,21.4,15.6,22z M21,17.6h-3.4c0.4-1.5,0.7-3.2,0.7-4.9h4.3C22.5,14.5,21.9,16.2,21,17.6
	z M21,6.4c0.9,1.4,1.5,3.1,1.6,4.9h-4.3c-0.1-1.7-0.3-3.4-0.7-4.9H21z M19.9,5h-2.8c-0.4-1-0.9-2.1-1.6-2.9
	C17.3,2.6,18.7,3.7,19.9,5z M12.7,1.5C14.1,2,15.1,3.6,15.6,5h-2.9V1.5z M12.7,6.4h3.4c0.4,1.5,0.7,3.2,0.8,4.9h-4.2V6.4z
	 M12.7,12.7h4.2c-0.1,1.8-0.3,3.4-0.8,4.9h-3.4V12.7z M12.7,19h2.9c-0.6,1.3-1.6,3-2.9,3.4V19z M4.1,19h2.8c0.4,1,0.9,2.1,1.6,2.9
	C6.7,21.4,5.3,20.3,4.1,19z M11.3,22.5C9.9,22,8.9,20.4,8.4,19h2.9V22.5z M11.3,17.6H7.9c-0.4-1.5-0.7-3.2-0.8-4.9h4.2V17.6z
	 M11.3,11.3H7.1c0.1-1.8,0.3-3.4,0.8-4.9h3.4V11.3z M11.3,1.5V5H8.4C8.9,3.6,9.9,2,11.3,1.5z M8.4,2C7.8,2.9,7.2,3.9,6.8,5H4.1
	C5.3,3.7,6.7,2.6,8.4,2z M3,6.4h3.4C6,7.9,5.7,9.6,5.7,11.3H1.4C1.5,9.5,2.1,7.8,3,6.4z M1.4,12.7h4.3c0.1,1.7,0.3,3.4,0.7,4.9H3
	C2.1,16.2,1.5,14.5,1.4,12.7z"/>
</svg>
