<?xml version="1.0" encoding="utf-8"?>
<!-- Generator: Adobe Illustrator 28.0.0, SVG Export Plug-In . SVG Version: 6.00 Build 0)  -->
<svg version="1.1" id="Capa_1" xmlns="http://www.w3.org/2000/svg" xmlns:xlink="http://www.w3.org/1999/xlink" x="0px" y="0px"
	 viewBox="0 0 24 24" style="enable-background:new 0 0 24 24;" xml:space="preserve">
<style type="text/css">
	.st0{fill:#A47AB5;}
</style>
<path class="st0" d="M7.4,23.3c-0.1,0-0.3,0-0.4,0c-0.3-0.1-0.6-0.2-0.8-0.4C6,22.5,5.8,22.3,5.8,22l-0.6-2.2H1.7
	c-0.5,0-0.9-0.2-1.2-0.5C0.2,18.9,0,18.5,0,18V2.5C0,2,0.2,1.6,0.5,1.3s0.8-0.5,1.2-0.5h20.6c0.5,0,0.9,0.2,1.2,0.5S24,2,24,2.5V18
	c0,0.5-0.2,0.9-0.5,1.2c-0.3,0.3-0.8,0.5-1.2,0.5h-11l-2.6,2.9c-0.2,0.2-0.4,0.3-0.6,0.4C7.9,23.2,7.7,23.3,7.4,23.3z M1.7,2.5V18
	h3.5c0.4,0,0.8,0.1,1.1,0.4c0.3,0.2,0.5,0.6,0.6,0.9l0.6,2.2l2.6-2.9c0.2-0.2,0.4-0.3,0.6-0.4c0.2-0.1,0.5-0.2,0.7-0.2h11V2.5H1.7z"
	/>
<path class="st0" d="M7.5,11.8c0.7,0,1.3-0.6,1.3-1.3c0-0.7-0.6-1.3-1.3-1.3s-1.3,0.6-1.3,1.3C6.2,11.2,6.8,11.8,7.5,11.8z"/>
<path class="st0" d="M12,11.8c0.7,0,1.3-0.6,1.3-1.3c0-0.7-0.6-1.3-1.3-1.3s-1.3,0.6-1.3,1.3C10.7,11.2,11.3,11.8,12,11.8z"/>
<path class="st0" d="M16.5,11.8c0.7,0,1.3-0.6,1.3-1.3c0-0.7-0.6-1.3-1.3-1.3c-0.7,0-1.3,0.6-1.3,1.3C15.2,11.2,15.8,11.8,16.5,11.8
	z"/>
</svg>
