<svg width="24" height="24" viewBox="0 0 24 24" fill="none" xmlns="http://www.w3.org/2000/svg">
<g clip-path="url(#clip0_1_43)">
<path d="M17.25 24H6.75C5.9546 23.9992 5.19202 23.6828 4.62959 23.1204C4.06716 22.558 3.75083 21.7954 3.75 21V3C3.75083 2.2046 4.06716 1.44202 4.62959 0.879593C5.19202 0.317163 5.9546 0.000827245 6.75 0L17.25 0C18.0454 0.000827245 18.808 0.317163 19.3704 0.879593C19.9328 1.44202 20.2492 2.2046 20.25 3V21C20.2492 21.7954 19.9328 22.558 19.3704 23.1204C18.808 23.6828 18.0454 23.9992 17.25 24ZM6.75 1.5C6.35218 1.5 5.97064 1.65804 5.68934 1.93934C5.40804 2.22064 5.25 2.60218 5.25 3V21C5.25 21.3978 5.40804 21.7794 5.68934 22.0607C5.97064 22.342 6.35218 22.5 6.75 22.5H17.25C17.6478 22.5 18.0294 22.342 18.3107 22.0607C18.592 21.7794 18.75 21.3978 18.75 21V3C18.75 2.60218 18.592 2.22064 18.3107 1.93934C18.0294 1.65804 17.6478 1.5 17.25 1.5H6.75Z" fill="#A47AB5"/>
<path d="M14.25 21H9.75C9.55109 21 9.36032 20.921 9.21967 20.7803C9.07902 20.6397 9 20.4489 9 20.25C9 20.0511 9.07902 19.8603 9.21967 19.7197C9.36032 19.579 9.55109 19.5 9.75 19.5H14.25C14.4489 19.5 14.6397 19.579 14.7803 19.7197C14.921 19.8603 15 20.0511 15 20.25C15 20.4489 14.921 20.6397 14.7803 20.7803C14.6397 20.921 14.4489 21 14.25 21Z" fill="#A47AB5"/>
</g>
<defs>
<clipPath id="clip0_1_43">
<rect width="24" height="24" fill="white"/>
</clipPath>
</defs>
</svg>
