<svg width="24" height="24" viewBox="0 0 24 24" fill="none" xmlns="http://www.w3.org/2000/svg">
<path d="M20.5385 2.07693H3.46153C1.55283 2.07693 0 3.62976 0 5.53847V18.4615C0 20.3702 1.55283 21.9231 3.46153 21.9231H20.5385C22.4472 21.9231 24 20.3702 24 18.4615V5.53847C24 3.62976 22.4472 2.07693 20.5385 2.07693ZM22.6154 14.0769H17.5385C16.3933 14.0769 15.4615 13.1452 15.4615 12C15.4615 10.8547 16.3932 9.92306 17.5385 9.92306H22.6154V14.0769ZM22.6154 8.53847H17.5385C15.6298 8.53847 14.0769 10.0913 14.0769 12C14.0769 13.9087 15.6298 15.4615 17.5385 15.4615H22.6154V18.4615C22.6154 19.6067 21.6837 20.5385 20.5385 20.5385H3.46153C2.31633 20.5385 1.38459 19.6068 1.38459 18.4615V5.53847C1.38459 4.39326 2.31628 3.46153 3.46153 3.46153H20.5385C21.6837 3.46153 22.6154 4.39322 22.6154 5.53847V8.53847Z" fill="#A47AB5"/>
<path d="M18.4615 11.3077H17.5385C17.1561 11.3077 16.8462 11.6177 16.8462 12C16.8462 12.3824 17.1562 12.6923 17.5385 12.6923H18.4615C18.8439 12.6923 19.1538 12.3823 19.1538 12C19.1538 11.6176 18.8439 11.3077 18.4615 11.3077Z" fill="#A47AB5"/>
</svg>
