<svg width="24" height="24" viewBox="0 0 24 24" fill="none" xmlns="http://www.w3.org/2000/svg">
<g clip-path="url(#clip0_1_31)">
<path d="M21.96 9.12C16.44 3.6 7.56 3.6 2.04 9.12C1.56 9.6 0.84 9.6 0.36 9.12C-0.12 8.64 -0.12 7.92 0.36 7.44C6.84 0.960002 17.28 0.960002 23.64 7.44C24.12 7.92 24.12 8.64 23.64 9.12C23.16 9.6 22.44 9.6 21.96 9.12Z" fill="#A47AB5"/>
<path d="M18.48 12.48C14.88 9 9.12001 9 5.64001 12.48C5.16001 12.96 4.44001 12.96 3.96001 12.48C3.48001 12 3.48001 11.28 3.96001 10.8C8.40001 6.24 15.72 6.24 20.16 10.8C20.64 11.28 20.64 12 20.16 12.48C19.68 12.96 18.96 12.96 18.48 12.48Z" fill="#A47AB5"/>
<path d="M15.12 16.08C13.44 14.4 10.8 14.4 9.24 16.08C8.76 16.56 8.04 16.56 7.56 16.08C7.08 15.6 7.08 14.76 7.56 14.28C10.08 11.52 14.28 11.52 16.8 14.28C17.28 14.76 17.28 15.6 16.8 16.08C16.32 16.56 15.6 16.56 15.12 16.08Z" fill="#A47AB5"/>
<path d="M12.12 21.48C13.3792 21.48 14.4 20.4592 14.4 19.2C14.4 17.9408 13.3792 16.92 12.12 16.92C10.8608 16.92 9.84 17.9408 9.84 19.2C9.84 20.4592 10.8608 21.48 12.12 21.48Z" fill="#A47AB5"/>
</g>
<defs>
<clipPath id="clip0_1_31">
<rect width="24" height="24" fill="white"/>
</clipPath>
</defs>
</svg>
