<?xml version="1.0" encoding="utf-8"?>
<!-- Generator: Adobe Illustrator 28.0.0, SVG Export Plug-In . SVG Version: 6.00 Build 0)  -->
<svg version="1.1" id="Capa_1" xmlns="http://www.w3.org/2000/svg" xmlns:xlink="http://www.w3.org/1999/xlink" x="0px" y="0px"
	 viewBox="0 0 23 23" style="enable-background:new 0 0 23 23;" xml:space="preserve">
<style type="text/css">
	.st0{fill-rule:evenodd;clip-rule:evenodd;fill:#FFFFFF;}
	.st1{fill:#FFFFFF;}
</style>
<path class="st0" d="M4.9,16.6c-0.1,0.3,0,0.7,0.3,0.9c0.3,0.1,0.7,0,0.9-0.3C6.4,16.7,6.6,16.3,7,16c0.7-0.7,1.7-1.1,2.7-1.1h1.8
	l0,0l0,0h1.8c1,0,2,0.4,2.7,1.1c0.3,0.3,0.6,0.7,0.8,1.2c0.1,0.3,0.5,0.5,0.9,0.3c0.3-0.1,0.5-0.5,0.3-0.9c-0.3-0.6-0.6-1.1-1.1-1.6
	c-0.6-0.6-1.4-1.1-2.3-1.3c1.2-1,2-2.4,2-4c0-2.9-2.3-5.2-5.2-5.2S6.2,6.8,6.2,9.7c0,1.6,0.8,3.1,2,4C7.4,14,6.7,14.4,6,15
	C5.6,15.5,5.2,16.1,4.9,16.6z M7.7,9.7c0-2.1,1.7-3.8,3.8-3.8s3.8,1.7,3.8,3.8s-1.7,3.8-3.8,3.8l0,0C9.4,13.5,7.7,11.8,7.7,9.7z"/>
<path class="st1" d="M11.5,23C5.2,23,0,17.8,0,11.5S5.2,0,11.5,0S23,5.2,23,11.5S17.8,23,11.5,23z M11.5,1.5c-5.5,0-10,4.5-10,10
	s4.5,10,10,10s10-4.5,10-10S17,1.5,11.5,1.5z"/>
</svg>
